<mxfile host="app.diagrams.net" agent="Mozilla/5.0 (Windows NT 10.0; Win64; x64) AppleWebKit/537.36 (KHTML, like Gecko) Chrome/135.0.0.0 Safari/537.36" version="26.2.13">
  <diagram name="Trang-1" id="I32VFRBzhrjc_JWmPxNp">
    <mxGraphModel dx="1228" dy="661" grid="1" gridSize="10" guides="1" tooltips="1" connect="1" arrows="1" fold="1" page="1" pageScale="1" pageWidth="900" pageHeight="1600" math="0" shadow="0">
      <root>
        <mxCell id="0" />
        <mxCell id="1" parent="0" />
        <mxCell id="Zwo1GPo9tSrl7qFwVQ2A-1" value="BookingService" style="shape=umlLifeline;perimeter=lifelinePerimeter;whiteSpace=wrap;html=1;container=0;dropTarget=0;collapsible=0;recursiveResize=0;outlineConnect=0;portConstraint=eastwest;newEdgeStyle={&quot;edgeStyle&quot;:&quot;elbowEdgeStyle&quot;,&quot;elbow&quot;:&quot;vertical&quot;,&quot;curved&quot;:0,&quot;rounded&quot;:0};fontSize=14;" parent="1" vertex="1">
          <mxGeometry x="680" y="280" width="120" height="580" as="geometry" />
        </mxCell>
        <mxCell id="Zwo1GPo9tSrl7qFwVQ2A-2" value="Yêu cầu xem danh sách vé" style="html=1;verticalAlign=bottom;endArrow=block;edgeStyle=elbowEdgeStyle;elbow=vertical;curved=0;rounded=0;fontSize=14;" parent="1" source="Zwo1GPo9tSrl7qFwVQ2A-23" target="Zwo1GPo9tSrl7qFwVQ2A-28" edge="1">
          <mxGeometry relative="1" as="geometry">
            <mxPoint x="290" y="360" as="sourcePoint" />
            <Array as="points">
              <mxPoint x="375" y="360" />
            </Array>
            <mxPoint x="470" y="360" as="targetPoint" />
          </mxGeometry>
        </mxCell>
        <mxCell id="Zwo1GPo9tSrl7qFwVQ2A-3" value="Hiển thị danh sách vé" style="html=1;verticalAlign=bottom;endArrow=block;edgeStyle=elbowEdgeStyle;elbow=horizontal;curved=0;rounded=0;fontSize=14;dashed=1;" parent="1" source="Zwo1GPo9tSrl7qFwVQ2A-1" edge="1">
          <mxGeometry x="-0.0038" relative="1" as="geometry">
            <mxPoint x="665" y="480" as="sourcePoint" />
            <Array as="points">
              <mxPoint x="575.5" y="480" />
            </Array>
            <mxPoint x="485.5" y="480" as="targetPoint" />
            <mxPoint as="offset" />
          </mxGeometry>
        </mxCell>
        <mxCell id="Zwo1GPo9tSrl7qFwVQ2A-4" value="Gửi yêu cầu đến BookingService" style="html=1;verticalAlign=bottom;endArrow=block;edgeStyle=elbowEdgeStyle;elbow=horizontal;curved=0;rounded=0;fontSize=14;" parent="1" source="Zwo1GPo9tSrl7qFwVQ2A-28" target="Zwo1GPo9tSrl7qFwVQ2A-25" edge="1">
          <mxGeometry x="0.0065" relative="1" as="geometry">
            <mxPoint x="490" y="380" as="sourcePoint" />
            <Array as="points">
              <mxPoint x="575" y="380" />
            </Array>
            <mxPoint x="660" y="380" as="targetPoint" />
            <mxPoint as="offset" />
          </mxGeometry>
        </mxCell>
        <mxCell id="Zwo1GPo9tSrl7qFwVQ2A-5" value="Danh sách vé hiển thị" style="html=1;verticalAlign=bottom;endArrow=block;edgeStyle=elbowEdgeStyle;elbow=vertical;curved=0;rounded=0;fontSize=14;" parent="1" source="Zwo1GPo9tSrl7qFwVQ2A-23" edge="1">
          <mxGeometry x="0.0037" relative="1" as="geometry">
            <mxPoint x="259.32352941176464" y="500" as="sourcePoint" />
            <Array as="points">
              <mxPoint x="375" y="500" />
            </Array>
            <mxPoint x="475" y="500" as="targetPoint" />
            <mxPoint as="offset" />
          </mxGeometry>
        </mxCell>
        <mxCell id="Zwo1GPo9tSrl7qFwVQ2A-13" value="Database" style="shape=umlLifeline;perimeter=lifelinePerimeter;whiteSpace=wrap;html=1;container=0;dropTarget=0;collapsible=0;recursiveResize=0;outlineConnect=0;portConstraint=eastwest;newEdgeStyle={&quot;edgeStyle&quot;:&quot;elbowEdgeStyle&quot;,&quot;elbow&quot;:&quot;vertical&quot;,&quot;curved&quot;:0,&quot;rounded&quot;:0};fontSize=14;" parent="1" vertex="1">
          <mxGeometry x="1080" y="280" width="105" height="580" as="geometry" />
        </mxCell>
        <mxCell id="Zwo1GPo9tSrl7qFwVQ2A-33" value="Trả về dữ liệu vé" style="html=1;verticalAlign=bottom;endArrow=block;edgeStyle=elbowEdgeStyle;elbow=horizontal;curved=0;rounded=0;fontSize=14;dashed=1;" parent="Zwo1GPo9tSrl7qFwVQ2A-13" edge="1">
          <mxGeometry x="-0.0005" relative="1" as="geometry">
            <mxPoint x="52" y="170" as="sourcePoint" />
            <Array as="points">
              <mxPoint x="-64.32000000000005" y="170" />
            </Array>
            <mxPoint x="-334.9964705882354" y="170" as="targetPoint" />
            <mxPoint as="offset" />
          </mxGeometry>
        </mxCell>
        <mxCell id="Zwo1GPo9tSrl7qFwVQ2A-45" value="&lt;span style=&quot;color: rgba(0, 0, 0, 0); font-family: monospace; font-size: 0px; text-align: start;&quot;&gt;%3CmxGraphModel%3E%3Croot%3E%3CmxCell%20id%3D%220%22%2F%3E%3CmxCell%20id%3D%221%22%20parent%3D%220%22%2F%3E%3CmxCell%20id%3D%222%22%20value%3D%22Y%C3%AAu%20c%E1%BA%A7u%20xem%20danh%20s%C3%A1ch%20v%C3%A9%22%20style%3D%22html%3D1%3BverticalAlign%3Dbottom%3BendArrow%3Dblock%3BedgeStyle%3DelbowEdgeStyle%3Belbow%3Dvertical%3Bcurved%3D0%3Brounded%3D0%3BfontSize%3D14%3B%22%20edge%3D%221%22%20parent%3D%221%22%3E%3CmxGeometry%20relative%3D%221%22%20as%3D%22geometry%22%3E%3CmxPoint%20x%3D%22259%22%20y%3D%22360%22%20as%3D%22sourcePoint%22%2F%3E%3CArray%20as%3D%22points%22%3E%3CmxPoint%20x%3D%22375%22%20y%3D%22360%22%2F%3E%3C%2FArray%3E%3CmxPoint%20x%3D%22475%22%20y%3D%22360%22%20as%3D%22targetPoint%22%2F%3E%3C%2FmxGeometry%3E%3C%2FmxCell%3E%3CmxCell%20id%3D%223%22%20value%3D%22Hi%E1%BB%83n%20th%E1%BB%8B%20danh%20s%C3%A1ch%20v%C3%A9%22%20style%3D%22html%3D1%3BverticalAlign%3Dbottom%3BendArrow%3Dblock%3BedgeStyle%3DelbowEdgeStyle%3Belbow%3Dhorizontal%3Bcurved%3D0%3Brounded%3D0%3BfontSize%3D14%3Bdashed%3D1%3B%22%20edge%3D%221%22%20parent%3D%221%22%3E%3CmxGeometry%20x%3D%22-0.0038%22%20relative%3D%221%22%20as%3D%22geometry%22%3E%3CmxPoint%20x%3D%22665%22%20y%3D%22480%22%20as%3D%22sourcePoint%22%2F%3E%3CArray%20as%3D%22points%22%3E%3CmxPoint%20x%3D%22575.5%22%20y%3D%22480%22%2F%3E%3C%2FArray%3E%3CmxPoint%20x%3D%22485.5%22%20y%3D%22480%22%20as%3D%22targetPoint%22%2F%3E%3CmxPoint%20as%3D%22offset%22%2F%3E%3C%2FmxGeometry%3E%3C%2FmxCell%3E%3CmxCell%20id%3D%224%22%20value%3D%22G%E1%BB%ADi%20y%C3%AAu%20c%E1%BA%A7u%20%C4%91%E1%BA%BFn%20BookingService%22%20style%3D%22html%3D1%3BverticalAlign%3Dbottom%3BendArrow%3Dblock%3BedgeStyle%3DelbowEdgeStyle%3Belbow%3Dhorizontal%3Bcurved%3D0%3Brounded%3D0%3BfontSize%3D14%3B%22%20edge%3D%221%22%20target%3D%227%22%20parent%3D%221%22%3E%3CmxGeometry%20x%3D%220.0065%22%20relative%3D%221%22%20as%3D%22geometry%22%3E%3CmxPoint%20x%3D%22485%22%20y%3D%22380%22%20as%3D%22sourcePoint%22%2F%3E%3CArray%20as%3D%22points%22%3E%3CmxPoint%20x%3D%22575%22%20y%3D%22380%22%2F%3E%3C%2FArray%3E%3CmxPoint%20x%3D%22660%22%20y%3D%22380%22%20as%3D%22targetPoint%22%2F%3E%3CmxPoint%20as%3D%22offset%22%2F%3E%3C%2FmxGeometry%3E%3C%2FmxCell%3E%3CmxCell%20id%3D%225%22%20value%3D%22Danh%20s%C3%A1ch%20v%C3%A9%20hi%E1%BB%83n%20th%E1%BB%8B%22%20style%3D%22html%3D1%3BverticalAlign%3Dbottom%3BendArrow%3Dblock%3BedgeStyle%3DelbowEdgeStyle%3Belbow%3Dvertical%3Bcurved%3D0%3Brounded%3D0%3BfontSize%3D14%3B%22%20edge%3D%221%22%20parent%3D%221%22%3E%3CmxGeometry%20x%3D%220.0037%22%20relative%3D%221%22%20as%3D%22geometry%22%3E%3CmxPoint%20x%3D%22259.32352941176464%22%20y%3D%22500%22%20as%3D%22sourcePoint%22%2F%3E%3CArray%20as%3D%22points%22%3E%3CmxPoint%20x%3D%22375%22%20y%3D%22500%22%2F%3E%3C%2FArray%3E%3CmxPoint%20x%3D%22475%22%20y%3D%22500%22%20as%3D%22targetPoint%22%2F%3E%3CmxPoint%20as%3D%22offset%22%2F%3E%3C%2FmxGeometry%3E%3C%2FmxCell%3E%3CmxCell%20id%3D%226%22%20value%3D%22%22%20style%3D%22html%3D1%3Bpoints%3D%5B%5D%3Bperimeter%3DorthogonalPerimeter%3BoutlineConnect%3D0%3BtargetShapes%3DumlLifeline%3BportConstraint%3Deastwest%3BnewEdgeStyle%3D%7B%26quot%3BedgeStyle%26quot%3B%3A%26quot%3BelbowEdgeStyle%26quot%3B%2C%26quot%3Belbow%26quot%3B%3A%26quot%3Bvertical%26quot%3B%2C%26quot%3Bcurved%26quot%3B%3A0%2C%26quot%3Brounded%26quot%3B%3A0%7D%3B%22%20vertex%3D%221%22%20parent%3D%221%22%3E%3CmxGeometry%20x%3D%22840%22%20y%3D%22500%22%20width%3D%2210%22%20height%3D%2250%22%20as%3D%22geometry%22%2F%3E%3C%2FmxCell%3E%3CmxCell%20id%3D%227%22%20value%3D%22%22%20style%3D%22html%3D1%3Bpoints%3D%5B%5D%3Bperimeter%3DorthogonalPerimeter%3BoutlineConnect%3D0%3BtargetShapes%3DumlLifeline%3BportConstraint%3Deastwest%3BnewEdgeStyle%3D%7B%26quot%3BedgeStyle%26quot%3B%3A%26quot%3BelbowEdgeStyle%26quot%3B%2C%26quot%3Belbow%26quot%3B%3A%26quot%3Bvertical%26quot%3B%2C%26quot%3Bcurved%26quot%3B%3A0%2C%26quot%3Brounded%26quot%3B%3A0%7D%3B%22%20vertex%3D%221%22%20parent%3D%221%22%3E%3CmxGeometry%20x%3D%22665%22%20y%3D%22380%22%20width%3D%2210%22%20height%3D%2270%22%20as%3D%22geometry%22%2F%3E%3C%2FmxCell%3E%3CmxCell%20id%3D%228%22%20value%3D%22Truy%20v%E1%BA%A5n%20danh%20s%C3%A1ch%20v%C3%A9%22%20style%3D%22html%3D1%3BverticalAlign%3Dbottom%3BendArrow%3Dblock%3BedgeStyle%3DelbowEdgeStyle%3Belbow%3Dvertical%3Bcurved%3D0%3Brounded%3D0%3BfontSize%3D14%3B%22%20edge%3D%221%22%20parent%3D%221%22%3E%3CmxGeometry%20x%3D%220.0015%22%20relative%3D%221%22%20as%3D%22geometry%22%3E%3CmxPoint%20x%3D%22684%22%20y%3D%22395%22%20as%3D%22sourcePoint%22%2F%3E%3CArray%20as%3D%22points%22%3E%3CmxPoint%20x%3D%22800%22%20y%3D%22395%22%2F%3E%3C%2FArray%3E%3CmxPoint%20x%3D%221027%22%20y%3D%22395%22%20as%3D%22targetPoint%22%2F%3E%3CmxPoint%20as%3D%22offset%22%2F%3E%3C%2FmxGeometry%3E%3C%2FmxCell%3E%3CmxCell%20id%3D%229%22%20value%3D%22Tr%E1%BA%A3%20v%E1%BB%81%20d%E1%BB%AF%20li%E1%BB%87u%20v%C3%A9%22%20style%3D%22html%3D1%3BverticalAlign%3Dbottom%3BendArrow%3Dblock%3BedgeStyle%3DelbowEdgeStyle%3Belbow%3Dhorizontal%3Bcurved%3D0%3Brounded%3D0%3BfontSize%3D14%3Bdashed%3D1%3B%22%20edge%3D%221%22%20parent%3D%221%22%3E%3CmxGeometry%20x%3D%22-0.0005%22%20relative%3D%221%22%20as%3D%22geometry%22%3E%3CmxPoint%20x%3D%221029.5%22%20y%3D%22460%22%20as%3D%22sourcePoint%22%2F%3E%3CArray%20as%3D%22points%22%3E%3CmxPoint%20x%3D%22940%22%20y%3D%22460%22%2F%3E%3C%2FArray%3E%3CmxPoint%20x%3D%22669%22%20y%3D%22460%22%20as%3D%22targetPoint%22%2F%3E%3CmxPoint%20as%3D%22offset%22%2F%3E%3C%2FmxGeometry%3E%3C%2FmxCell%3E%3C%2Froot%3E%3C%2FmxGraphModel%3E&lt;/span&gt;" style="html=1;points=[];perimeter=orthogonalPerimeter;outlineConnect=0;targetShapes=umlLifeline;portConstraint=eastwest;newEdgeStyle={&quot;edgeStyle&quot;:&quot;elbowEdgeStyle&quot;,&quot;elbow&quot;:&quot;vertical&quot;,&quot;curved&quot;:0,&quot;rounded&quot;:0};" parent="Zwo1GPo9tSrl7qFwVQ2A-13" vertex="1">
          <mxGeometry x="47.5" y="120" width="10" height="50" as="geometry" />
        </mxCell>
        <mxCell id="Zwo1GPo9tSrl7qFwVQ2A-47" value="&lt;span style=&quot;color: rgba(0, 0, 0, 0); font-family: monospace; font-size: 0px; text-align: start;&quot;&gt;%3CmxGraphModel%3E%3Croot%3E%3CmxCell%20id%3D%220%22%2F%3E%3CmxCell%20id%3D%221%22%20parent%3D%220%22%2F%3E%3CmxCell%20id%3D%222%22%20value%3D%22Y%C3%AAu%20c%E1%BA%A7u%20xem%20danh%20s%C3%A1ch%20v%C3%A9%22%20style%3D%22html%3D1%3BverticalAlign%3Dbottom%3BendArrow%3Dblock%3BedgeStyle%3DelbowEdgeStyle%3Belbow%3Dvertical%3Bcurved%3D0%3Brounded%3D0%3BfontSize%3D14%3B%22%20edge%3D%221%22%20parent%3D%221%22%3E%3CmxGeometry%20relative%3D%221%22%20as%3D%22geometry%22%3E%3CmxPoint%20x%3D%22259%22%20y%3D%22360%22%20as%3D%22sourcePoint%22%2F%3E%3CArray%20as%3D%22points%22%3E%3CmxPoint%20x%3D%22375%22%20y%3D%22360%22%2F%3E%3C%2FArray%3E%3CmxPoint%20x%3D%22475%22%20y%3D%22360%22%20as%3D%22targetPoint%22%2F%3E%3C%2FmxGeometry%3E%3C%2FmxCell%3E%3CmxCell%20id%3D%223%22%20value%3D%22Hi%E1%BB%83n%20th%E1%BB%8B%20danh%20s%C3%A1ch%20v%C3%A9%22%20style%3D%22html%3D1%3BverticalAlign%3Dbottom%3BendArrow%3Dblock%3BedgeStyle%3DelbowEdgeStyle%3Belbow%3Dhorizontal%3Bcurved%3D0%3Brounded%3D0%3BfontSize%3D14%3Bdashed%3D1%3B%22%20edge%3D%221%22%20parent%3D%221%22%3E%3CmxGeometry%20x%3D%22-0.0038%22%20relative%3D%221%22%20as%3D%22geometry%22%3E%3CmxPoint%20x%3D%22665%22%20y%3D%22480%22%20as%3D%22sourcePoint%22%2F%3E%3CArray%20as%3D%22points%22%3E%3CmxPoint%20x%3D%22575.5%22%20y%3D%22480%22%2F%3E%3C%2FArray%3E%3CmxPoint%20x%3D%22485.5%22%20y%3D%22480%22%20as%3D%22targetPoint%22%2F%3E%3CmxPoint%20as%3D%22offset%22%2F%3E%3C%2FmxGeometry%3E%3C%2FmxCell%3E%3CmxCell%20id%3D%224%22%20value%3D%22G%E1%BB%ADi%20y%C3%AAu%20c%E1%BA%A7u%20%C4%91%E1%BA%BFn%20BookingService%22%20style%3D%22html%3D1%3BverticalAlign%3Dbottom%3BendArrow%3Dblock%3BedgeStyle%3DelbowEdgeStyle%3Belbow%3Dhorizontal%3Bcurved%3D0%3Brounded%3D0%3BfontSize%3D14%3B%22%20edge%3D%221%22%20target%3D%227%22%20parent%3D%221%22%3E%3CmxGeometry%20x%3D%220.0065%22%20relative%3D%221%22%20as%3D%22geometry%22%3E%3CmxPoint%20x%3D%22485%22%20y%3D%22380%22%20as%3D%22sourcePoint%22%2F%3E%3CArray%20as%3D%22points%22%3E%3CmxPoint%20x%3D%22575%22%20y%3D%22380%22%2F%3E%3C%2FArray%3E%3CmxPoint%20x%3D%22660%22%20y%3D%22380%22%20as%3D%22targetPoint%22%2F%3E%3CmxPoint%20as%3D%22offset%22%2F%3E%3C%2FmxGeometry%3E%3C%2FmxCell%3E%3CmxCell%20id%3D%225%22%20value%3D%22Danh%20s%C3%A1ch%20v%C3%A9%20hi%E1%BB%83n%20th%E1%BB%8B%22%20style%3D%22html%3D1%3BverticalAlign%3Dbottom%3BendArrow%3Dblock%3BedgeStyle%3DelbowEdgeStyle%3Belbow%3Dvertical%3Bcurved%3D0%3Brounded%3D0%3BfontSize%3D14%3B%22%20edge%3D%221%22%20parent%3D%221%22%3E%3CmxGeometry%20x%3D%220.0037%22%20relative%3D%221%22%20as%3D%22geometry%22%3E%3CmxPoint%20x%3D%22259.32352941176464%22%20y%3D%22500%22%20as%3D%22sourcePoint%22%2F%3E%3CArray%20as%3D%22points%22%3E%3CmxPoint%20x%3D%22375%22%20y%3D%22500%22%2F%3E%3C%2FArray%3E%3CmxPoint%20x%3D%22475%22%20y%3D%22500%22%20as%3D%22targetPoint%22%2F%3E%3CmxPoint%20as%3D%22offset%22%2F%3E%3C%2FmxGeometry%3E%3C%2FmxCell%3E%3CmxCell%20id%3D%226%22%20value%3D%22%22%20style%3D%22html%3D1%3Bpoints%3D%5B%5D%3Bperimeter%3DorthogonalPerimeter%3BoutlineConnect%3D0%3BtargetShapes%3DumlLifeline%3BportConstraint%3Deastwest%3BnewEdgeStyle%3D%7B%26quot%3BedgeStyle%26quot%3B%3A%26quot%3BelbowEdgeStyle%26quot%3B%2C%26quot%3Belbow%26quot%3B%3A%26quot%3Bvertical%26quot%3B%2C%26quot%3Bcurved%26quot%3B%3A0%2C%26quot%3Brounded%26quot%3B%3A0%7D%3B%22%20vertex%3D%221%22%20parent%3D%221%22%3E%3CmxGeometry%20x%3D%22840%22%20y%3D%22500%22%20width%3D%2210%22%20height%3D%2250%22%20as%3D%22geometry%22%2F%3E%3C%2FmxCell%3E%3CmxCell%20id%3D%227%22%20value%3D%22%22%20style%3D%22html%3D1%3Bpoints%3D%5B%5D%3Bperimeter%3DorthogonalPerimeter%3BoutlineConnect%3D0%3BtargetShapes%3DumlLifeline%3BportConstraint%3Deastwest%3BnewEdgeStyle%3D%7B%26quot%3BedgeStyle%26quot%3B%3A%26quot%3BelbowEdgeStyle%26quot%3B%2C%26quot%3Belbow%26quot%3B%3A%26quot%3Bvertical%26quot%3B%2C%26quot%3Bcurved%26quot%3B%3A0%2C%26quot%3Brounded%26quot%3B%3A0%7D%3B%22%20vertex%3D%221%22%20parent%3D%221%22%3E%3CmxGeometry%20x%3D%22665%22%20y%3D%22380%22%20width%3D%2210%22%20height%3D%2270%22%20as%3D%22geometry%22%2F%3E%3C%2FmxCell%3E%3CmxCell%20id%3D%228%22%20value%3D%22Truy%20v%E1%BA%A5n%20danh%20s%C3%A1ch%20v%C3%A9%22%20style%3D%22html%3D1%3BverticalAlign%3Dbottom%3BendArrow%3Dblock%3BedgeStyle%3DelbowEdgeStyle%3Belbow%3Dvertical%3Bcurved%3D0%3Brounded%3D0%3BfontSize%3D14%3B%22%20edge%3D%221%22%20parent%3D%221%22%3E%3CmxGeometry%20x%3D%220.0015%22%20relative%3D%221%22%20as%3D%22geometry%22%3E%3CmxPoint%20x%3D%22684%22%20y%3D%22395%22%20as%3D%22sourcePoint%22%2F%3E%3CArray%20as%3D%22points%22%3E%3CmxPoint%20x%3D%22800%22%20y%3D%22395%22%2F%3E%3C%2FArray%3E%3CmxPoint%20x%3D%221027%22%20y%3D%22395%22%20as%3D%22targetPoint%22%2F%3E%3CmxPoint%20as%3D%22offset%22%2F%3E%3C%2FmxGeometry%3E%3C%2FmxCell%3E%3CmxCell%20id%3D%229%22%20value%3D%22Tr%E1%BA%A3%20v%E1%BB%81%20d%E1%BB%AF%20li%E1%BB%87u%20v%C3%A9%22%20style%3D%22html%3D1%3BverticalAlign%3Dbottom%3BendArrow%3Dblock%3BedgeStyle%3DelbowEdgeStyle%3Belbow%3Dhorizontal%3Bcurved%3D0%3Brounded%3D0%3BfontSize%3D14%3Bdashed%3D1%3B%22%20edge%3D%221%22%20parent%3D%221%22%3E%3CmxGeometry%20x%3D%22-0.0005%22%20relative%3D%221%22%20as%3D%22geometry%22%3E%3CmxPoint%20x%3D%221029.5%22%20y%3D%22460%22%20as%3D%22sourcePoint%22%2F%3E%3CArray%20as%3D%22points%22%3E%3CmxPoint%20x%3D%22940%22%20y%3D%22460%22%2F%3E%3C%2FArray%3E%3CmxPoint%20x%3D%22669%22%20y%3D%22460%22%20as%3D%22targetPoint%22%2F%3E%3CmxPoint%20as%3D%22offset%22%2F%3E%3C%2FmxGeometry%3E%3C%2FmxCell%3E%3C%2Froot%3E%3C%2FmxGraphModel%3E&lt;/span&gt;" style="html=1;points=[];perimeter=orthogonalPerimeter;outlineConnect=0;targetShapes=umlLifeline;portConstraint=eastwest;newEdgeStyle={&quot;edgeStyle&quot;:&quot;elbowEdgeStyle&quot;,&quot;elbow&quot;:&quot;vertical&quot;,&quot;curved&quot;:0,&quot;rounded&quot;:0};" parent="Zwo1GPo9tSrl7qFwVQ2A-13" vertex="1">
          <mxGeometry x="47.5" y="380" width="10" height="70" as="geometry" />
        </mxCell>
        <mxCell id="Zwo1GPo9tSrl7qFwVQ2A-27" value="UI" style="shape=umlLifeline;perimeter=lifelinePerimeter;whiteSpace=wrap;html=1;container=0;dropTarget=0;collapsible=0;recursiveResize=0;outlineConnect=0;portConstraint=eastwest;newEdgeStyle={&quot;edgeStyle&quot;:&quot;elbowEdgeStyle&quot;,&quot;elbow&quot;:&quot;vertical&quot;,&quot;curved&quot;:0,&quot;rounded&quot;:0};fontSize=14;" parent="1" vertex="1">
          <mxGeometry x="430" y="280" width="100" height="580" as="geometry" />
        </mxCell>
        <mxCell id="Zwo1GPo9tSrl7qFwVQ2A-28" value="" style="html=1;points=[];perimeter=orthogonalPerimeter;outlineConnect=0;targetShapes=umlLifeline;portConstraint=eastwest;newEdgeStyle={&quot;edgeStyle&quot;:&quot;elbowEdgeStyle&quot;,&quot;elbow&quot;:&quot;vertical&quot;,&quot;curved&quot;:0,&quot;rounded&quot;:0};" parent="Zwo1GPo9tSrl7qFwVQ2A-27" vertex="1">
          <mxGeometry x="45" y="80" width="10" height="460" as="geometry" />
        </mxCell>
        <mxCell id="Zwo1GPo9tSrl7qFwVQ2A-32" value="Truy vấn danh sách vé" style="html=1;verticalAlign=bottom;endArrow=block;edgeStyle=elbowEdgeStyle;elbow=vertical;curved=0;rounded=0;fontSize=14;exitX=0.5;exitY=0.214;exitDx=0;exitDy=0;exitPerimeter=0;entryX=0.25;entryY=0.02;entryDx=0;entryDy=0;entryPerimeter=0;" parent="1" source="Zwo1GPo9tSrl7qFwVQ2A-25" target="Zwo1GPo9tSrl7qFwVQ2A-45" edge="1">
          <mxGeometry x="0.0015" relative="1" as="geometry">
            <mxPoint x="754" y="395" as="sourcePoint" />
            <Array as="points" />
            <mxPoint x="1120" y="401" as="targetPoint" />
            <mxPoint as="offset" />
          </mxGeometry>
        </mxCell>
        <mxCell id="Zwo1GPo9tSrl7qFwVQ2A-34" value="Yêu cầu xem báo cáo doanh thu" style="html=1;verticalAlign=bottom;endArrow=block;edgeStyle=elbowEdgeStyle;elbow=vertical;curved=0;rounded=0;fontSize=14;" parent="1" source="Zwo1GPo9tSrl7qFwVQ2A-23" target="Zwo1GPo9tSrl7qFwVQ2A-28" edge="1">
          <mxGeometry relative="1" as="geometry">
            <mxPoint x="270" y="630" as="sourcePoint" />
            <Array as="points" />
            <mxPoint x="460" y="630" as="targetPoint" />
          </mxGeometry>
        </mxCell>
        <mxCell id="Zwo1GPo9tSrl7qFwVQ2A-35" value="Hiển thị báo cáo" style="html=1;verticalAlign=bottom;endArrow=block;edgeStyle=elbowEdgeStyle;elbow=horizontal;curved=0;rounded=0;fontSize=14;dashed=1;" parent="1" source="Zwo1GPo9tSrl7qFwVQ2A-7" edge="1">
          <mxGeometry x="-0.0078" relative="1" as="geometry">
            <mxPoint x="676" y="750" as="sourcePoint" />
            <Array as="points">
              <mxPoint x="586.5" y="750" />
            </Array>
            <mxPoint x="490" y="750" as="targetPoint" />
            <mxPoint as="offset" />
          </mxGeometry>
        </mxCell>
        <mxCell id="Zwo1GPo9tSrl7qFwVQ2A-36" value="Gửi yêu cầu đến ReportService" style="html=1;verticalAlign=bottom;endArrow=block;edgeStyle=elbowEdgeStyle;elbow=horizontal;curved=0;rounded=0;fontSize=14;" parent="1" edge="1">
          <mxGeometry x="0.0065" relative="1" as="geometry">
            <mxPoint x="490" y="640" as="sourcePoint" />
            <Array as="points">
              <mxPoint x="586" y="640" />
            </Array>
            <mxPoint x="910" y="640" as="targetPoint" />
            <mxPoint as="offset" />
          </mxGeometry>
        </mxCell>
        <mxCell id="Zwo1GPo9tSrl7qFwVQ2A-37" value="Hiển thị báo cáo cho Manager" style="html=1;verticalAlign=bottom;endArrow=block;edgeStyle=elbowEdgeStyle;elbow=vertical;curved=0;rounded=0;fontSize=14;dashed=1;" parent="1" edge="1">
          <mxGeometry x="0.0037" relative="1" as="geometry">
            <mxPoint x="475" y="780" as="sourcePoint" />
            <Array as="points">
              <mxPoint x="386" y="780" />
            </Array>
            <mxPoint x="220" y="780" as="targetPoint" />
            <mxPoint as="offset" />
          </mxGeometry>
        </mxCell>
        <mxCell id="Zwo1GPo9tSrl7qFwVQ2A-40" value="Truy vấn dữ liệu doanh thu" style="html=1;verticalAlign=bottom;endArrow=block;edgeStyle=elbowEdgeStyle;elbow=vertical;curved=0;rounded=0;fontSize=14;" parent="1" target="Zwo1GPo9tSrl7qFwVQ2A-47" edge="1">
          <mxGeometry x="0.0015" relative="1" as="geometry">
            <mxPoint x="910" y="665" as="sourcePoint" />
            <Array as="points" />
            <mxPoint x="1108" y="665" as="targetPoint" />
            <mxPoint as="offset" />
          </mxGeometry>
        </mxCell>
        <mxCell id="Zwo1GPo9tSrl7qFwVQ2A-41" value="Dữ liệu doanh thu" style="html=1;verticalAlign=bottom;endArrow=block;edgeStyle=elbowEdgeStyle;elbow=horizontal;curved=0;rounded=0;fontSize=14;dashed=1;" parent="1" source="Zwo1GPo9tSrl7qFwVQ2A-47" edge="1">
          <mxGeometry x="-0.0005" relative="1" as="geometry">
            <mxPoint x="1110.5" y="730" as="sourcePoint" />
            <Array as="points">
              <mxPoint x="1021" y="730" />
            </Array>
            <mxPoint x="920" y="730" as="targetPoint" />
            <mxPoint as="offset" />
          </mxGeometry>
        </mxCell>
        <mxCell id="Zwo1GPo9tSrl7qFwVQ2A-23" value="Manager" style="shape=umlLifeline;perimeter=lifelinePerimeter;whiteSpace=wrap;html=1;container=0;dropTarget=0;collapsible=0;recursiveResize=0;outlineConnect=0;portConstraint=eastwest;newEdgeStyle={&quot;edgeStyle&quot;:&quot;elbowEdgeStyle&quot;,&quot;elbow&quot;:&quot;vertical&quot;,&quot;curved&quot;:0,&quot;rounded&quot;:0};fontSize=14;" parent="1" vertex="1">
          <mxGeometry x="160" y="280" width="100" height="580" as="geometry" />
        </mxCell>
        <mxCell id="Zwo1GPo9tSrl7qFwVQ2A-24" value="" style="html=1;points=[];perimeter=orthogonalPerimeter;outlineConnect=0;targetShapes=umlLifeline;portConstraint=eastwest;newEdgeStyle={&quot;edgeStyle&quot;:&quot;elbowEdgeStyle&quot;,&quot;elbow&quot;:&quot;vertical&quot;,&quot;curved&quot;:0,&quot;rounded&quot;:0};" parent="Zwo1GPo9tSrl7qFwVQ2A-23" vertex="1">
          <mxGeometry x="45" y="60" width="10" height="480" as="geometry" />
        </mxCell>
        <mxCell id="Zwo1GPo9tSrl7qFwVQ2A-25" value="&lt;span style=&quot;color: rgba(0, 0, 0, 0); font-family: monospace; font-size: 0px; text-align: start;&quot;&gt;%3CmxGraphModel%3E%3Croot%3E%3CmxCell%20id%3D%220%22%2F%3E%3CmxCell%20id%3D%221%22%20parent%3D%220%22%2F%3E%3CmxCell%20id%3D%222%22%20value%3D%22Y%C3%AAu%20c%E1%BA%A7u%20xem%20danh%20s%C3%A1ch%20v%C3%A9%22%20style%3D%22html%3D1%3BverticalAlign%3Dbottom%3BendArrow%3Dblock%3BedgeStyle%3DelbowEdgeStyle%3Belbow%3Dvertical%3Bcurved%3D0%3Brounded%3D0%3BfontSize%3D14%3B%22%20edge%3D%221%22%20parent%3D%221%22%3E%3CmxGeometry%20relative%3D%221%22%20as%3D%22geometry%22%3E%3CmxPoint%20x%3D%22259%22%20y%3D%22360%22%20as%3D%22sourcePoint%22%2F%3E%3CArray%20as%3D%22points%22%3E%3CmxPoint%20x%3D%22375%22%20y%3D%22360%22%2F%3E%3C%2FArray%3E%3CmxPoint%20x%3D%22475%22%20y%3D%22360%22%20as%3D%22targetPoint%22%2F%3E%3C%2FmxGeometry%3E%3C%2FmxCell%3E%3CmxCell%20id%3D%223%22%20value%3D%22Hi%E1%BB%83n%20th%E1%BB%8B%20danh%20s%C3%A1ch%20v%C3%A9%22%20style%3D%22html%3D1%3BverticalAlign%3Dbottom%3BendArrow%3Dblock%3BedgeStyle%3DelbowEdgeStyle%3Belbow%3Dhorizontal%3Bcurved%3D0%3Brounded%3D0%3BfontSize%3D14%3Bdashed%3D1%3B%22%20edge%3D%221%22%20parent%3D%221%22%3E%3CmxGeometry%20x%3D%22-0.0038%22%20relative%3D%221%22%20as%3D%22geometry%22%3E%3CmxPoint%20x%3D%22665%22%20y%3D%22480%22%20as%3D%22sourcePoint%22%2F%3E%3CArray%20as%3D%22points%22%3E%3CmxPoint%20x%3D%22575.5%22%20y%3D%22480%22%2F%3E%3C%2FArray%3E%3CmxPoint%20x%3D%22485.5%22%20y%3D%22480%22%20as%3D%22targetPoint%22%2F%3E%3CmxPoint%20as%3D%22offset%22%2F%3E%3C%2FmxGeometry%3E%3C%2FmxCell%3E%3CmxCell%20id%3D%224%22%20value%3D%22G%E1%BB%ADi%20y%C3%AAu%20c%E1%BA%A7u%20%C4%91%E1%BA%BFn%20BookingService%22%20style%3D%22html%3D1%3BverticalAlign%3Dbottom%3BendArrow%3Dblock%3BedgeStyle%3DelbowEdgeStyle%3Belbow%3Dhorizontal%3Bcurved%3D0%3Brounded%3D0%3BfontSize%3D14%3B%22%20edge%3D%221%22%20target%3D%227%22%20parent%3D%221%22%3E%3CmxGeometry%20x%3D%220.0065%22%20relative%3D%221%22%20as%3D%22geometry%22%3E%3CmxPoint%20x%3D%22485%22%20y%3D%22380%22%20as%3D%22sourcePoint%22%2F%3E%3CArray%20as%3D%22points%22%3E%3CmxPoint%20x%3D%22575%22%20y%3D%22380%22%2F%3E%3C%2FArray%3E%3CmxPoint%20x%3D%22660%22%20y%3D%22380%22%20as%3D%22targetPoint%22%2F%3E%3CmxPoint%20as%3D%22offset%22%2F%3E%3C%2FmxGeometry%3E%3C%2FmxCell%3E%3CmxCell%20id%3D%225%22%20value%3D%22Danh%20s%C3%A1ch%20v%C3%A9%20hi%E1%BB%83n%20th%E1%BB%8B%22%20style%3D%22html%3D1%3BverticalAlign%3Dbottom%3BendArrow%3Dblock%3BedgeStyle%3DelbowEdgeStyle%3Belbow%3Dvertical%3Bcurved%3D0%3Brounded%3D0%3BfontSize%3D14%3B%22%20edge%3D%221%22%20parent%3D%221%22%3E%3CmxGeometry%20x%3D%220.0037%22%20relative%3D%221%22%20as%3D%22geometry%22%3E%3CmxPoint%20x%3D%22259.32352941176464%22%20y%3D%22500%22%20as%3D%22sourcePoint%22%2F%3E%3CArray%20as%3D%22points%22%3E%3CmxPoint%20x%3D%22375%22%20y%3D%22500%22%2F%3E%3C%2FArray%3E%3CmxPoint%20x%3D%22475%22%20y%3D%22500%22%20as%3D%22targetPoint%22%2F%3E%3CmxPoint%20as%3D%22offset%22%2F%3E%3C%2FmxGeometry%3E%3C%2FmxCell%3E%3CmxCell%20id%3D%226%22%20value%3D%22%22%20style%3D%22html%3D1%3Bpoints%3D%5B%5D%3Bperimeter%3DorthogonalPerimeter%3BoutlineConnect%3D0%3BtargetShapes%3DumlLifeline%3BportConstraint%3Deastwest%3BnewEdgeStyle%3D%7B%26quot%3BedgeStyle%26quot%3B%3A%26quot%3BelbowEdgeStyle%26quot%3B%2C%26quot%3Belbow%26quot%3B%3A%26quot%3Bvertical%26quot%3B%2C%26quot%3Bcurved%26quot%3B%3A0%2C%26quot%3Brounded%26quot%3B%3A0%7D%3B%22%20vertex%3D%221%22%20parent%3D%221%22%3E%3CmxGeometry%20x%3D%22840%22%20y%3D%22500%22%20width%3D%2210%22%20height%3D%2250%22%20as%3D%22geometry%22%2F%3E%3C%2FmxCell%3E%3CmxCell%20id%3D%227%22%20value%3D%22%22%20style%3D%22html%3D1%3Bpoints%3D%5B%5D%3Bperimeter%3DorthogonalPerimeter%3BoutlineConnect%3D0%3BtargetShapes%3DumlLifeline%3BportConstraint%3Deastwest%3BnewEdgeStyle%3D%7B%26quot%3BedgeStyle%26quot%3B%3A%26quot%3BelbowEdgeStyle%26quot%3B%2C%26quot%3Belbow%26quot%3B%3A%26quot%3Bvertical%26quot%3B%2C%26quot%3Bcurved%26quot%3B%3A0%2C%26quot%3Brounded%26quot%3B%3A0%7D%3B%22%20vertex%3D%221%22%20parent%3D%221%22%3E%3CmxGeometry%20x%3D%22665%22%20y%3D%22380%22%20width%3D%2210%22%20height%3D%2270%22%20as%3D%22geometry%22%2F%3E%3C%2FmxCell%3E%3CmxCell%20id%3D%228%22%20value%3D%22Truy%20v%E1%BA%A5n%20danh%20s%C3%A1ch%20v%C3%A9%22%20style%3D%22html%3D1%3BverticalAlign%3Dbottom%3BendArrow%3Dblock%3BedgeStyle%3DelbowEdgeStyle%3Belbow%3Dvertical%3Bcurved%3D0%3Brounded%3D0%3BfontSize%3D14%3B%22%20edge%3D%221%22%20parent%3D%221%22%3E%3CmxGeometry%20x%3D%220.0015%22%20relative%3D%221%22%20as%3D%22geometry%22%3E%3CmxPoint%20x%3D%22684%22%20y%3D%22395%22%20as%3D%22sourcePoint%22%2F%3E%3CArray%20as%3D%22points%22%3E%3CmxPoint%20x%3D%22800%22%20y%3D%22395%22%2F%3E%3C%2FArray%3E%3CmxPoint%20x%3D%221027%22%20y%3D%22395%22%20as%3D%22targetPoint%22%2F%3E%3CmxPoint%20as%3D%22offset%22%2F%3E%3C%2FmxGeometry%3E%3C%2FmxCell%3E%3CmxCell%20id%3D%229%22%20value%3D%22Tr%E1%BA%A3%20v%E1%BB%81%20d%E1%BB%AF%20li%E1%BB%87u%20v%C3%A9%22%20style%3D%22html%3D1%3BverticalAlign%3Dbottom%3BendArrow%3Dblock%3BedgeStyle%3DelbowEdgeStyle%3Belbow%3Dhorizontal%3Bcurved%3D0%3Brounded%3D0%3BfontSize%3D14%3Bdashed%3D1%3B%22%20edge%3D%221%22%20parent%3D%221%22%3E%3CmxGeometry%20x%3D%22-0.0005%22%20relative%3D%221%22%20as%3D%22geometry%22%3E%3CmxPoint%20x%3D%221029.5%22%20y%3D%22460%22%20as%3D%22sourcePoint%22%2F%3E%3CArray%20as%3D%22points%22%3E%3CmxPoint%20x%3D%22940%22%20y%3D%22460%22%2F%3E%3C%2FArray%3E%3CmxPoint%20x%3D%22669%22%20y%3D%22460%22%20as%3D%22targetPoint%22%2F%3E%3CmxPoint%20as%3D%22offset%22%2F%3E%3C%2FmxGeometry%3E%3C%2FmxCell%3E%3C%2Froot%3E%3C%2FmxGraphModel%3E&lt;/span&gt;" style="html=1;points=[];perimeter=orthogonalPerimeter;outlineConnect=0;targetShapes=umlLifeline;portConstraint=eastwest;newEdgeStyle={&quot;edgeStyle&quot;:&quot;elbowEdgeStyle&quot;,&quot;elbow&quot;:&quot;vertical&quot;,&quot;curved&quot;:0,&quot;rounded&quot;:0};" parent="1" vertex="1">
          <mxGeometry x="735" y="380" width="10" height="100" as="geometry" />
        </mxCell>
        <mxCell id="Zwo1GPo9tSrl7qFwVQ2A-7" value="ReportService" style="shape=umlLifeline;perimeter=lifelinePerimeter;whiteSpace=wrap;html=1;container=0;dropTarget=0;collapsible=0;recursiveResize=0;outlineConnect=0;portConstraint=eastwest;newEdgeStyle={&quot;edgeStyle&quot;:&quot;elbowEdgeStyle&quot;,&quot;elbow&quot;:&quot;vertical&quot;,&quot;curved&quot;:0,&quot;rounded&quot;:0};fontSize=14;" parent="1" vertex="1">
          <mxGeometry x="865" y="280" width="100" height="580" as="geometry" />
        </mxCell>
        <mxCell id="Zwo1GPo9tSrl7qFwVQ2A-46" value="&lt;span style=&quot;color: rgba(0, 0, 0, 0); font-family: monospace; font-size: 0px; text-align: start;&quot;&gt;%3CmxGraphModel%3E%3Croot%3E%3CmxCell%20id%3D%220%22%2F%3E%3CmxCell%20id%3D%221%22%20parent%3D%220%22%2F%3E%3CmxCell%20id%3D%222%22%20value%3D%22Y%C3%AAu%20c%E1%BA%A7u%20xem%20danh%20s%C3%A1ch%20v%C3%A9%22%20style%3D%22html%3D1%3BverticalAlign%3Dbottom%3BendArrow%3Dblock%3BedgeStyle%3DelbowEdgeStyle%3Belbow%3Dvertical%3Bcurved%3D0%3Brounded%3D0%3BfontSize%3D14%3B%22%20edge%3D%221%22%20parent%3D%221%22%3E%3CmxGeometry%20relative%3D%221%22%20as%3D%22geometry%22%3E%3CmxPoint%20x%3D%22259%22%20y%3D%22360%22%20as%3D%22sourcePoint%22%2F%3E%3CArray%20as%3D%22points%22%3E%3CmxPoint%20x%3D%22375%22%20y%3D%22360%22%2F%3E%3C%2FArray%3E%3CmxPoint%20x%3D%22475%22%20y%3D%22360%22%20as%3D%22targetPoint%22%2F%3E%3C%2FmxGeometry%3E%3C%2FmxCell%3E%3CmxCell%20id%3D%223%22%20value%3D%22Hi%E1%BB%83n%20th%E1%BB%8B%20danh%20s%C3%A1ch%20v%C3%A9%22%20style%3D%22html%3D1%3BverticalAlign%3Dbottom%3BendArrow%3Dblock%3BedgeStyle%3DelbowEdgeStyle%3Belbow%3Dhorizontal%3Bcurved%3D0%3Brounded%3D0%3BfontSize%3D14%3Bdashed%3D1%3B%22%20edge%3D%221%22%20parent%3D%221%22%3E%3CmxGeometry%20x%3D%22-0.0038%22%20relative%3D%221%22%20as%3D%22geometry%22%3E%3CmxPoint%20x%3D%22665%22%20y%3D%22480%22%20as%3D%22sourcePoint%22%2F%3E%3CArray%20as%3D%22points%22%3E%3CmxPoint%20x%3D%22575.5%22%20y%3D%22480%22%2F%3E%3C%2FArray%3E%3CmxPoint%20x%3D%22485.5%22%20y%3D%22480%22%20as%3D%22targetPoint%22%2F%3E%3CmxPoint%20as%3D%22offset%22%2F%3E%3C%2FmxGeometry%3E%3C%2FmxCell%3E%3CmxCell%20id%3D%224%22%20value%3D%22G%E1%BB%ADi%20y%C3%AAu%20c%E1%BA%A7u%20%C4%91%E1%BA%BFn%20BookingService%22%20style%3D%22html%3D1%3BverticalAlign%3Dbottom%3BendArrow%3Dblock%3BedgeStyle%3DelbowEdgeStyle%3Belbow%3Dhorizontal%3Bcurved%3D0%3Brounded%3D0%3BfontSize%3D14%3B%22%20edge%3D%221%22%20target%3D%227%22%20parent%3D%221%22%3E%3CmxGeometry%20x%3D%220.0065%22%20relative%3D%221%22%20as%3D%22geometry%22%3E%3CmxPoint%20x%3D%22485%22%20y%3D%22380%22%20as%3D%22sourcePoint%22%2F%3E%3CArray%20as%3D%22points%22%3E%3CmxPoint%20x%3D%22575%22%20y%3D%22380%22%2F%3E%3C%2FArray%3E%3CmxPoint%20x%3D%22660%22%20y%3D%22380%22%20as%3D%22targetPoint%22%2F%3E%3CmxPoint%20as%3D%22offset%22%2F%3E%3C%2FmxGeometry%3E%3C%2FmxCell%3E%3CmxCell%20id%3D%225%22%20value%3D%22Danh%20s%C3%A1ch%20v%C3%A9%20hi%E1%BB%83n%20th%E1%BB%8B%22%20style%3D%22html%3D1%3BverticalAlign%3Dbottom%3BendArrow%3Dblock%3BedgeStyle%3DelbowEdgeStyle%3Belbow%3Dvertical%3Bcurved%3D0%3Brounded%3D0%3BfontSize%3D14%3B%22%20edge%3D%221%22%20parent%3D%221%22%3E%3CmxGeometry%20x%3D%220.0037%22%20relative%3D%221%22%20as%3D%22geometry%22%3E%3CmxPoint%20x%3D%22259.32352941176464%22%20y%3D%22500%22%20as%3D%22sourcePoint%22%2F%3E%3CArray%20as%3D%22points%22%3E%3CmxPoint%20x%3D%22375%22%20y%3D%22500%22%2F%3E%3C%2FArray%3E%3CmxPoint%20x%3D%22475%22%20y%3D%22500%22%20as%3D%22targetPoint%22%2F%3E%3CmxPoint%20as%3D%22offset%22%2F%3E%3C%2FmxGeometry%3E%3C%2FmxCell%3E%3CmxCell%20id%3D%226%22%20value%3D%22%22%20style%3D%22html%3D1%3Bpoints%3D%5B%5D%3Bperimeter%3DorthogonalPerimeter%3BoutlineConnect%3D0%3BtargetShapes%3DumlLifeline%3BportConstraint%3Deastwest%3BnewEdgeStyle%3D%7B%26quot%3BedgeStyle%26quot%3B%3A%26quot%3BelbowEdgeStyle%26quot%3B%2C%26quot%3Belbow%26quot%3B%3A%26quot%3Bvertical%26quot%3B%2C%26quot%3Bcurved%26quot%3B%3A0%2C%26quot%3Brounded%26quot%3B%3A0%7D%3B%22%20vertex%3D%221%22%20parent%3D%221%22%3E%3CmxGeometry%20x%3D%22840%22%20y%3D%22500%22%20width%3D%2210%22%20height%3D%2250%22%20as%3D%22geometry%22%2F%3E%3C%2FmxCell%3E%3CmxCell%20id%3D%227%22%20value%3D%22%22%20style%3D%22html%3D1%3Bpoints%3D%5B%5D%3Bperimeter%3DorthogonalPerimeter%3BoutlineConnect%3D0%3BtargetShapes%3DumlLifeline%3BportConstraint%3Deastwest%3BnewEdgeStyle%3D%7B%26quot%3BedgeStyle%26quot%3B%3A%26quot%3BelbowEdgeStyle%26quot%3B%2C%26quot%3Belbow%26quot%3B%3A%26quot%3Bvertical%26quot%3B%2C%26quot%3Bcurved%26quot%3B%3A0%2C%26quot%3Brounded%26quot%3B%3A0%7D%3B%22%20vertex%3D%221%22%20parent%3D%221%22%3E%3CmxGeometry%20x%3D%22665%22%20y%3D%22380%22%20width%3D%2210%22%20height%3D%2270%22%20as%3D%22geometry%22%2F%3E%3C%2FmxCell%3E%3CmxCell%20id%3D%228%22%20value%3D%22Truy%20v%E1%BA%A5n%20danh%20s%C3%A1ch%20v%C3%A9%22%20style%3D%22html%3D1%3BverticalAlign%3Dbottom%3BendArrow%3Dblock%3BedgeStyle%3DelbowEdgeStyle%3Belbow%3Dvertical%3Bcurved%3D0%3Brounded%3D0%3BfontSize%3D14%3B%22%20edge%3D%221%22%20parent%3D%221%22%3E%3CmxGeometry%20x%3D%220.0015%22%20relative%3D%221%22%20as%3D%22geometry%22%3E%3CmxPoint%20x%3D%22684%22%20y%3D%22395%22%20as%3D%22sourcePoint%22%2F%3E%3CArray%20as%3D%22points%22%3E%3CmxPoint%20x%3D%22800%22%20y%3D%22395%22%2F%3E%3C%2FArray%3E%3CmxPoint%20x%3D%221027%22%20y%3D%22395%22%20as%3D%22targetPoint%22%2F%3E%3CmxPoint%20as%3D%22offset%22%2F%3E%3C%2FmxGeometry%3E%3C%2FmxCell%3E%3CmxCell%20id%3D%229%22%20value%3D%22Tr%E1%BA%A3%20v%E1%BB%81%20d%E1%BB%AF%20li%E1%BB%87u%20v%C3%A9%22%20style%3D%22html%3D1%3BverticalAlign%3Dbottom%3BendArrow%3Dblock%3BedgeStyle%3DelbowEdgeStyle%3Belbow%3Dhorizontal%3Bcurved%3D0%3Brounded%3D0%3BfontSize%3D14%3Bdashed%3D1%3B%22%20edge%3D%221%22%20parent%3D%221%22%3E%3CmxGeometry%20x%3D%22-0.0005%22%20relative%3D%221%22%20as%3D%22geometry%22%3E%3CmxPoint%20x%3D%221029.5%22%20y%3D%22460%22%20as%3D%22sourcePoint%22%2F%3E%3CArray%20as%3D%22points%22%3E%3CmxPoint%20x%3D%22940%22%20y%3D%22460%22%2F%3E%3C%2FArray%3E%3CmxPoint%20x%3D%22669%22%20y%3D%22460%22%20as%3D%22targetPoint%22%2F%3E%3CmxPoint%20as%3D%22offset%22%2F%3E%3C%2FmxGeometry%3E%3C%2FmxCell%3E%3C%2Froot%3E%3C%2FmxGraphModel%3E&lt;/span&gt;" style="html=1;points=[];perimeter=orthogonalPerimeter;outlineConnect=0;targetShapes=umlLifeline;portConstraint=eastwest;newEdgeStyle={&quot;edgeStyle&quot;:&quot;elbowEdgeStyle&quot;,&quot;elbow&quot;:&quot;vertical&quot;,&quot;curved&quot;:0,&quot;rounded&quot;:0};" parent="Zwo1GPo9tSrl7qFwVQ2A-7" vertex="1">
          <mxGeometry x="45" y="360" width="10" height="110" as="geometry" />
        </mxCell>
        <mxCell id="RAOm7xvI7w1EK6sl318r-1" value="BookingService" style="shape=umlLifeline;perimeter=lifelinePerimeter;whiteSpace=wrap;html=1;container=0;dropTarget=0;collapsible=0;recursiveResize=0;outlineConnect=0;portConstraint=eastwest;newEdgeStyle={&quot;edgeStyle&quot;:&quot;elbowEdgeStyle&quot;,&quot;elbow&quot;:&quot;vertical&quot;,&quot;curved&quot;:0,&quot;rounded&quot;:0};fontSize=14;" vertex="1" parent="1">
          <mxGeometry x="1830" y="280" width="120" height="280" as="geometry" />
        </mxCell>
        <mxCell id="RAOm7xvI7w1EK6sl318r-2" value="Yêu cầu xem danh sách vé" style="html=1;verticalAlign=bottom;endArrow=block;edgeStyle=elbowEdgeStyle;elbow=vertical;curved=0;rounded=0;fontSize=14;" edge="1" parent="1" source="RAOm7xvI7w1EK6sl318r-19" target="RAOm7xvI7w1EK6sl318r-11">
          <mxGeometry relative="1" as="geometry">
            <mxPoint x="1440" y="360" as="sourcePoint" />
            <Array as="points">
              <mxPoint x="1525" y="360" />
            </Array>
            <mxPoint x="1620" y="360" as="targetPoint" />
          </mxGeometry>
        </mxCell>
        <mxCell id="RAOm7xvI7w1EK6sl318r-3" value="Hiển thị danh sách vé" style="html=1;verticalAlign=bottom;endArrow=block;edgeStyle=elbowEdgeStyle;elbow=horizontal;curved=0;rounded=0;fontSize=14;dashed=1;" edge="1" parent="1" source="RAOm7xvI7w1EK6sl318r-1">
          <mxGeometry x="-0.0038" relative="1" as="geometry">
            <mxPoint x="1815" y="480" as="sourcePoint" />
            <Array as="points">
              <mxPoint x="1725.5" y="480" />
            </Array>
            <mxPoint x="1635.5" y="480" as="targetPoint" />
            <mxPoint as="offset" />
          </mxGeometry>
        </mxCell>
        <mxCell id="RAOm7xvI7w1EK6sl318r-4" value="Gửi yêu cầu đến BookingService" style="html=1;verticalAlign=bottom;endArrow=block;edgeStyle=elbowEdgeStyle;elbow=horizontal;curved=0;rounded=0;fontSize=14;" edge="1" parent="1" source="RAOm7xvI7w1EK6sl318r-11" target="RAOm7xvI7w1EK6sl318r-21">
          <mxGeometry x="0.0065" relative="1" as="geometry">
            <mxPoint x="1640" y="380" as="sourcePoint" />
            <Array as="points">
              <mxPoint x="1725" y="380" />
            </Array>
            <mxPoint x="1810" y="380" as="targetPoint" />
            <mxPoint as="offset" />
          </mxGeometry>
        </mxCell>
        <mxCell id="RAOm7xvI7w1EK6sl318r-5" value="Danh sách vé hiển thị" style="html=1;verticalAlign=bottom;endArrow=block;edgeStyle=elbowEdgeStyle;elbow=vertical;curved=0;rounded=0;fontSize=14;dashed=1;" edge="1" parent="1" target="RAOm7xvI7w1EK6sl318r-19">
          <mxGeometry x="0.0037" relative="1" as="geometry">
            <mxPoint x="1625" y="500" as="sourcePoint" />
            <Array as="points">
              <mxPoint x="1525" y="500" />
            </Array>
            <mxPoint x="1409.3235294117646" y="500" as="targetPoint" />
            <mxPoint as="offset" />
          </mxGeometry>
        </mxCell>
        <mxCell id="RAOm7xvI7w1EK6sl318r-6" value="Database" style="shape=umlLifeline;perimeter=lifelinePerimeter;whiteSpace=wrap;html=1;container=0;dropTarget=0;collapsible=0;recursiveResize=0;outlineConnect=0;portConstraint=eastwest;newEdgeStyle={&quot;edgeStyle&quot;:&quot;elbowEdgeStyle&quot;,&quot;elbow&quot;:&quot;vertical&quot;,&quot;curved&quot;:0,&quot;rounded&quot;:0};fontSize=14;" vertex="1" parent="1">
          <mxGeometry x="2230" y="280" width="105" height="280" as="geometry" />
        </mxCell>
        <mxCell id="RAOm7xvI7w1EK6sl318r-8" value="&lt;span style=&quot;color: rgba(0, 0, 0, 0); font-family: monospace; font-size: 0px; text-align: start;&quot;&gt;%3CmxGraphModel%3E%3Croot%3E%3CmxCell%20id%3D%220%22%2F%3E%3CmxCell%20id%3D%221%22%20parent%3D%220%22%2F%3E%3CmxCell%20id%3D%222%22%20value%3D%22Y%C3%AAu%20c%E1%BA%A7u%20xem%20danh%20s%C3%A1ch%20v%C3%A9%22%20style%3D%22html%3D1%3BverticalAlign%3Dbottom%3BendArrow%3Dblock%3BedgeStyle%3DelbowEdgeStyle%3Belbow%3Dvertical%3Bcurved%3D0%3Brounded%3D0%3BfontSize%3D14%3B%22%20edge%3D%221%22%20parent%3D%221%22%3E%3CmxGeometry%20relative%3D%221%22%20as%3D%22geometry%22%3E%3CmxPoint%20x%3D%22259%22%20y%3D%22360%22%20as%3D%22sourcePoint%22%2F%3E%3CArray%20as%3D%22points%22%3E%3CmxPoint%20x%3D%22375%22%20y%3D%22360%22%2F%3E%3C%2FArray%3E%3CmxPoint%20x%3D%22475%22%20y%3D%22360%22%20as%3D%22targetPoint%22%2F%3E%3C%2FmxGeometry%3E%3C%2FmxCell%3E%3CmxCell%20id%3D%223%22%20value%3D%22Hi%E1%BB%83n%20th%E1%BB%8B%20danh%20s%C3%A1ch%20v%C3%A9%22%20style%3D%22html%3D1%3BverticalAlign%3Dbottom%3BendArrow%3Dblock%3BedgeStyle%3DelbowEdgeStyle%3Belbow%3Dhorizontal%3Bcurved%3D0%3Brounded%3D0%3BfontSize%3D14%3Bdashed%3D1%3B%22%20edge%3D%221%22%20parent%3D%221%22%3E%3CmxGeometry%20x%3D%22-0.0038%22%20relative%3D%221%22%20as%3D%22geometry%22%3E%3CmxPoint%20x%3D%22665%22%20y%3D%22480%22%20as%3D%22sourcePoint%22%2F%3E%3CArray%20as%3D%22points%22%3E%3CmxPoint%20x%3D%22575.5%22%20y%3D%22480%22%2F%3E%3C%2FArray%3E%3CmxPoint%20x%3D%22485.5%22%20y%3D%22480%22%20as%3D%22targetPoint%22%2F%3E%3CmxPoint%20as%3D%22offset%22%2F%3E%3C%2FmxGeometry%3E%3C%2FmxCell%3E%3CmxCell%20id%3D%224%22%20value%3D%22G%E1%BB%ADi%20y%C3%AAu%20c%E1%BA%A7u%20%C4%91%E1%BA%BFn%20BookingService%22%20style%3D%22html%3D1%3BverticalAlign%3Dbottom%3BendArrow%3Dblock%3BedgeStyle%3DelbowEdgeStyle%3Belbow%3Dhorizontal%3Bcurved%3D0%3Brounded%3D0%3BfontSize%3D14%3B%22%20edge%3D%221%22%20target%3D%227%22%20parent%3D%221%22%3E%3CmxGeometry%20x%3D%220.0065%22%20relative%3D%221%22%20as%3D%22geometry%22%3E%3CmxPoint%20x%3D%22485%22%20y%3D%22380%22%20as%3D%22sourcePoint%22%2F%3E%3CArray%20as%3D%22points%22%3E%3CmxPoint%20x%3D%22575%22%20y%3D%22380%22%2F%3E%3C%2FArray%3E%3CmxPoint%20x%3D%22660%22%20y%3D%22380%22%20as%3D%22targetPoint%22%2F%3E%3CmxPoint%20as%3D%22offset%22%2F%3E%3C%2FmxGeometry%3E%3C%2FmxCell%3E%3CmxCell%20id%3D%225%22%20value%3D%22Danh%20s%C3%A1ch%20v%C3%A9%20hi%E1%BB%83n%20th%E1%BB%8B%22%20style%3D%22html%3D1%3BverticalAlign%3Dbottom%3BendArrow%3Dblock%3BedgeStyle%3DelbowEdgeStyle%3Belbow%3Dvertical%3Bcurved%3D0%3Brounded%3D0%3BfontSize%3D14%3B%22%20edge%3D%221%22%20parent%3D%221%22%3E%3CmxGeometry%20x%3D%220.0037%22%20relative%3D%221%22%20as%3D%22geometry%22%3E%3CmxPoint%20x%3D%22259.32352941176464%22%20y%3D%22500%22%20as%3D%22sourcePoint%22%2F%3E%3CArray%20as%3D%22points%22%3E%3CmxPoint%20x%3D%22375%22%20y%3D%22500%22%2F%3E%3C%2FArray%3E%3CmxPoint%20x%3D%22475%22%20y%3D%22500%22%20as%3D%22targetPoint%22%2F%3E%3CmxPoint%20as%3D%22offset%22%2F%3E%3C%2FmxGeometry%3E%3C%2FmxCell%3E%3CmxCell%20id%3D%226%22%20value%3D%22%22%20style%3D%22html%3D1%3Bpoints%3D%5B%5D%3Bperimeter%3DorthogonalPerimeter%3BoutlineConnect%3D0%3BtargetShapes%3DumlLifeline%3BportConstraint%3Deastwest%3BnewEdgeStyle%3D%7B%26quot%3BedgeStyle%26quot%3B%3A%26quot%3BelbowEdgeStyle%26quot%3B%2C%26quot%3Belbow%26quot%3B%3A%26quot%3Bvertical%26quot%3B%2C%26quot%3Bcurved%26quot%3B%3A0%2C%26quot%3Brounded%26quot%3B%3A0%7D%3B%22%20vertex%3D%221%22%20parent%3D%221%22%3E%3CmxGeometry%20x%3D%22840%22%20y%3D%22500%22%20width%3D%2210%22%20height%3D%2250%22%20as%3D%22geometry%22%2F%3E%3C%2FmxCell%3E%3CmxCell%20id%3D%227%22%20value%3D%22%22%20style%3D%22html%3D1%3Bpoints%3D%5B%5D%3Bperimeter%3DorthogonalPerimeter%3BoutlineConnect%3D0%3BtargetShapes%3DumlLifeline%3BportConstraint%3Deastwest%3BnewEdgeStyle%3D%7B%26quot%3BedgeStyle%26quot%3B%3A%26quot%3BelbowEdgeStyle%26quot%3B%2C%26quot%3Belbow%26quot%3B%3A%26quot%3Bvertical%26quot%3B%2C%26quot%3Bcurved%26quot%3B%3A0%2C%26quot%3Brounded%26quot%3B%3A0%7D%3B%22%20vertex%3D%221%22%20parent%3D%221%22%3E%3CmxGeometry%20x%3D%22665%22%20y%3D%22380%22%20width%3D%2210%22%20height%3D%2270%22%20as%3D%22geometry%22%2F%3E%3C%2FmxCell%3E%3CmxCell%20id%3D%228%22%20value%3D%22Truy%20v%E1%BA%A5n%20danh%20s%C3%A1ch%20v%C3%A9%22%20style%3D%22html%3D1%3BverticalAlign%3Dbottom%3BendArrow%3Dblock%3BedgeStyle%3DelbowEdgeStyle%3Belbow%3Dvertical%3Bcurved%3D0%3Brounded%3D0%3BfontSize%3D14%3B%22%20edge%3D%221%22%20parent%3D%221%22%3E%3CmxGeometry%20x%3D%220.0015%22%20relative%3D%221%22%20as%3D%22geometry%22%3E%3CmxPoint%20x%3D%22684%22%20y%3D%22395%22%20as%3D%22sourcePoint%22%2F%3E%3CArray%20as%3D%22points%22%3E%3CmxPoint%20x%3D%22800%22%20y%3D%22395%22%2F%3E%3C%2FArray%3E%3CmxPoint%20x%3D%221027%22%20y%3D%22395%22%20as%3D%22targetPoint%22%2F%3E%3CmxPoint%20as%3D%22offset%22%2F%3E%3C%2FmxGeometry%3E%3C%2FmxCell%3E%3CmxCell%20id%3D%229%22%20value%3D%22Tr%E1%BA%A3%20v%E1%BB%81%20d%E1%BB%AF%20li%E1%BB%87u%20v%C3%A9%22%20style%3D%22html%3D1%3BverticalAlign%3Dbottom%3BendArrow%3Dblock%3BedgeStyle%3DelbowEdgeStyle%3Belbow%3Dhorizontal%3Bcurved%3D0%3Brounded%3D0%3BfontSize%3D14%3Bdashed%3D1%3B%22%20edge%3D%221%22%20parent%3D%221%22%3E%3CmxGeometry%20x%3D%22-0.0005%22%20relative%3D%221%22%20as%3D%22geometry%22%3E%3CmxPoint%20x%3D%221029.5%22%20y%3D%22460%22%20as%3D%22sourcePoint%22%2F%3E%3CArray%20as%3D%22points%22%3E%3CmxPoint%20x%3D%22940%22%20y%3D%22460%22%2F%3E%3C%2FArray%3E%3CmxPoint%20x%3D%22669%22%20y%3D%22460%22%20as%3D%22targetPoint%22%2F%3E%3CmxPoint%20as%3D%22offset%22%2F%3E%3C%2FmxGeometry%3E%3C%2FmxCell%3E%3C%2Froot%3E%3C%2FmxGraphModel%3E&lt;/span&gt;" style="html=1;points=[];perimeter=orthogonalPerimeter;outlineConnect=0;targetShapes=umlLifeline;portConstraint=eastwest;newEdgeStyle={&quot;edgeStyle&quot;:&quot;elbowEdgeStyle&quot;,&quot;elbow&quot;:&quot;vertical&quot;,&quot;curved&quot;:0,&quot;rounded&quot;:0};" vertex="1" parent="RAOm7xvI7w1EK6sl318r-6">
          <mxGeometry x="47.5" y="120" width="10" height="50" as="geometry" />
        </mxCell>
        <mxCell id="RAOm7xvI7w1EK6sl318r-7" value="Trả về dữ liệu vé" style="html=1;verticalAlign=bottom;endArrow=block;edgeStyle=elbowEdgeStyle;elbow=horizontal;curved=0;rounded=0;fontSize=14;dashed=1;" edge="1" parent="RAOm7xvI7w1EK6sl318r-6">
          <mxGeometry x="-0.0005" relative="1" as="geometry">
            <mxPoint x="52" y="170" as="sourcePoint" />
            <Array as="points">
              <mxPoint x="-64.32000000000005" y="170" />
            </Array>
            <mxPoint x="-334.9964705882354" y="170" as="targetPoint" />
            <mxPoint as="offset" />
          </mxGeometry>
        </mxCell>
        <mxCell id="RAOm7xvI7w1EK6sl318r-10" value="UI" style="shape=umlLifeline;perimeter=lifelinePerimeter;whiteSpace=wrap;html=1;container=0;dropTarget=0;collapsible=0;recursiveResize=0;outlineConnect=0;portConstraint=eastwest;newEdgeStyle={&quot;edgeStyle&quot;:&quot;elbowEdgeStyle&quot;,&quot;elbow&quot;:&quot;vertical&quot;,&quot;curved&quot;:0,&quot;rounded&quot;:0};fontSize=14;" vertex="1" parent="1">
          <mxGeometry x="1580" y="280" width="100" height="280" as="geometry" />
        </mxCell>
        <mxCell id="RAOm7xvI7w1EK6sl318r-11" value="" style="html=1;points=[];perimeter=orthogonalPerimeter;outlineConnect=0;targetShapes=umlLifeline;portConstraint=eastwest;newEdgeStyle={&quot;edgeStyle&quot;:&quot;elbowEdgeStyle&quot;,&quot;elbow&quot;:&quot;vertical&quot;,&quot;curved&quot;:0,&quot;rounded&quot;:0};" vertex="1" parent="RAOm7xvI7w1EK6sl318r-10">
          <mxGeometry x="45" y="80" width="10" height="140" as="geometry" />
        </mxCell>
        <mxCell id="RAOm7xvI7w1EK6sl318r-12" value="Truy vấn danh sách vé" style="html=1;verticalAlign=bottom;endArrow=block;edgeStyle=elbowEdgeStyle;elbow=vertical;curved=0;rounded=0;fontSize=14;exitX=0.5;exitY=0.214;exitDx=0;exitDy=0;exitPerimeter=0;entryX=0.25;entryY=0.02;entryDx=0;entryDy=0;entryPerimeter=0;" edge="1" parent="1" source="RAOm7xvI7w1EK6sl318r-21" target="RAOm7xvI7w1EK6sl318r-8">
          <mxGeometry x="0.0015" relative="1" as="geometry">
            <mxPoint x="1904" y="395" as="sourcePoint" />
            <Array as="points" />
            <mxPoint x="2270" y="401" as="targetPoint" />
            <mxPoint as="offset" />
          </mxGeometry>
        </mxCell>
        <mxCell id="RAOm7xvI7w1EK6sl318r-19" value="Manager" style="shape=umlLifeline;perimeter=lifelinePerimeter;whiteSpace=wrap;html=1;container=0;dropTarget=0;collapsible=0;recursiveResize=0;outlineConnect=0;portConstraint=eastwest;newEdgeStyle={&quot;edgeStyle&quot;:&quot;elbowEdgeStyle&quot;,&quot;elbow&quot;:&quot;vertical&quot;,&quot;curved&quot;:0,&quot;rounded&quot;:0};fontSize=14;" vertex="1" parent="1">
          <mxGeometry x="1310" y="280" width="100" height="280" as="geometry" />
        </mxCell>
        <mxCell id="RAOm7xvI7w1EK6sl318r-20" value="" style="html=1;points=[];perimeter=orthogonalPerimeter;outlineConnect=0;targetShapes=umlLifeline;portConstraint=eastwest;newEdgeStyle={&quot;edgeStyle&quot;:&quot;elbowEdgeStyle&quot;,&quot;elbow&quot;:&quot;vertical&quot;,&quot;curved&quot;:0,&quot;rounded&quot;:0};" vertex="1" parent="RAOm7xvI7w1EK6sl318r-19">
          <mxGeometry x="45" y="60" width="10" height="180" as="geometry" />
        </mxCell>
        <mxCell id="RAOm7xvI7w1EK6sl318r-21" value="&lt;span style=&quot;color: rgba(0, 0, 0, 0); font-family: monospace; font-size: 0px; text-align: start;&quot;&gt;%3CmxGraphModel%3E%3Croot%3E%3CmxCell%20id%3D%220%22%2F%3E%3CmxCell%20id%3D%221%22%20parent%3D%220%22%2F%3E%3CmxCell%20id%3D%222%22%20value%3D%22Y%C3%AAu%20c%E1%BA%A7u%20xem%20danh%20s%C3%A1ch%20v%C3%A9%22%20style%3D%22html%3D1%3BverticalAlign%3Dbottom%3BendArrow%3Dblock%3BedgeStyle%3DelbowEdgeStyle%3Belbow%3Dvertical%3Bcurved%3D0%3Brounded%3D0%3BfontSize%3D14%3B%22%20edge%3D%221%22%20parent%3D%221%22%3E%3CmxGeometry%20relative%3D%221%22%20as%3D%22geometry%22%3E%3CmxPoint%20x%3D%22259%22%20y%3D%22360%22%20as%3D%22sourcePoint%22%2F%3E%3CArray%20as%3D%22points%22%3E%3CmxPoint%20x%3D%22375%22%20y%3D%22360%22%2F%3E%3C%2FArray%3E%3CmxPoint%20x%3D%22475%22%20y%3D%22360%22%20as%3D%22targetPoint%22%2F%3E%3C%2FmxGeometry%3E%3C%2FmxCell%3E%3CmxCell%20id%3D%223%22%20value%3D%22Hi%E1%BB%83n%20th%E1%BB%8B%20danh%20s%C3%A1ch%20v%C3%A9%22%20style%3D%22html%3D1%3BverticalAlign%3Dbottom%3BendArrow%3Dblock%3BedgeStyle%3DelbowEdgeStyle%3Belbow%3Dhorizontal%3Bcurved%3D0%3Brounded%3D0%3BfontSize%3D14%3Bdashed%3D1%3B%22%20edge%3D%221%22%20parent%3D%221%22%3E%3CmxGeometry%20x%3D%22-0.0038%22%20relative%3D%221%22%20as%3D%22geometry%22%3E%3CmxPoint%20x%3D%22665%22%20y%3D%22480%22%20as%3D%22sourcePoint%22%2F%3E%3CArray%20as%3D%22points%22%3E%3CmxPoint%20x%3D%22575.5%22%20y%3D%22480%22%2F%3E%3C%2FArray%3E%3CmxPoint%20x%3D%22485.5%22%20y%3D%22480%22%20as%3D%22targetPoint%22%2F%3E%3CmxPoint%20as%3D%22offset%22%2F%3E%3C%2FmxGeometry%3E%3C%2FmxCell%3E%3CmxCell%20id%3D%224%22%20value%3D%22G%E1%BB%ADi%20y%C3%AAu%20c%E1%BA%A7u%20%C4%91%E1%BA%BFn%20BookingService%22%20style%3D%22html%3D1%3BverticalAlign%3Dbottom%3BendArrow%3Dblock%3BedgeStyle%3DelbowEdgeStyle%3Belbow%3Dhorizontal%3Bcurved%3D0%3Brounded%3D0%3BfontSize%3D14%3B%22%20edge%3D%221%22%20target%3D%227%22%20parent%3D%221%22%3E%3CmxGeometry%20x%3D%220.0065%22%20relative%3D%221%22%20as%3D%22geometry%22%3E%3CmxPoint%20x%3D%22485%22%20y%3D%22380%22%20as%3D%22sourcePoint%22%2F%3E%3CArray%20as%3D%22points%22%3E%3CmxPoint%20x%3D%22575%22%20y%3D%22380%22%2F%3E%3C%2FArray%3E%3CmxPoint%20x%3D%22660%22%20y%3D%22380%22%20as%3D%22targetPoint%22%2F%3E%3CmxPoint%20as%3D%22offset%22%2F%3E%3C%2FmxGeometry%3E%3C%2FmxCell%3E%3CmxCell%20id%3D%225%22%20value%3D%22Danh%20s%C3%A1ch%20v%C3%A9%20hi%E1%BB%83n%20th%E1%BB%8B%22%20style%3D%22html%3D1%3BverticalAlign%3Dbottom%3BendArrow%3Dblock%3BedgeStyle%3DelbowEdgeStyle%3Belbow%3Dvertical%3Bcurved%3D0%3Brounded%3D0%3BfontSize%3D14%3B%22%20edge%3D%221%22%20parent%3D%221%22%3E%3CmxGeometry%20x%3D%220.0037%22%20relative%3D%221%22%20as%3D%22geometry%22%3E%3CmxPoint%20x%3D%22259.32352941176464%22%20y%3D%22500%22%20as%3D%22sourcePoint%22%2F%3E%3CArray%20as%3D%22points%22%3E%3CmxPoint%20x%3D%22375%22%20y%3D%22500%22%2F%3E%3C%2FArray%3E%3CmxPoint%20x%3D%22475%22%20y%3D%22500%22%20as%3D%22targetPoint%22%2F%3E%3CmxPoint%20as%3D%22offset%22%2F%3E%3C%2FmxGeometry%3E%3C%2FmxCell%3E%3CmxCell%20id%3D%226%22%20value%3D%22%22%20style%3D%22html%3D1%3Bpoints%3D%5B%5D%3Bperimeter%3DorthogonalPerimeter%3BoutlineConnect%3D0%3BtargetShapes%3DumlLifeline%3BportConstraint%3Deastwest%3BnewEdgeStyle%3D%7B%26quot%3BedgeStyle%26quot%3B%3A%26quot%3BelbowEdgeStyle%26quot%3B%2C%26quot%3Belbow%26quot%3B%3A%26quot%3Bvertical%26quot%3B%2C%26quot%3Bcurved%26quot%3B%3A0%2C%26quot%3Brounded%26quot%3B%3A0%7D%3B%22%20vertex%3D%221%22%20parent%3D%221%22%3E%3CmxGeometry%20x%3D%22840%22%20y%3D%22500%22%20width%3D%2210%22%20height%3D%2250%22%20as%3D%22geometry%22%2F%3E%3C%2FmxCell%3E%3CmxCell%20id%3D%227%22%20value%3D%22%22%20style%3D%22html%3D1%3Bpoints%3D%5B%5D%3Bperimeter%3DorthogonalPerimeter%3BoutlineConnect%3D0%3BtargetShapes%3DumlLifeline%3BportConstraint%3Deastwest%3BnewEdgeStyle%3D%7B%26quot%3BedgeStyle%26quot%3B%3A%26quot%3BelbowEdgeStyle%26quot%3B%2C%26quot%3Belbow%26quot%3B%3A%26quot%3Bvertical%26quot%3B%2C%26quot%3Bcurved%26quot%3B%3A0%2C%26quot%3Brounded%26quot%3B%3A0%7D%3B%22%20vertex%3D%221%22%20parent%3D%221%22%3E%3CmxGeometry%20x%3D%22665%22%20y%3D%22380%22%20width%3D%2210%22%20height%3D%2270%22%20as%3D%22geometry%22%2F%3E%3C%2FmxCell%3E%3CmxCell%20id%3D%228%22%20value%3D%22Truy%20v%E1%BA%A5n%20danh%20s%C3%A1ch%20v%C3%A9%22%20style%3D%22html%3D1%3BverticalAlign%3Dbottom%3BendArrow%3Dblock%3BedgeStyle%3DelbowEdgeStyle%3Belbow%3Dvertical%3Bcurved%3D0%3Brounded%3D0%3BfontSize%3D14%3B%22%20edge%3D%221%22%20parent%3D%221%22%3E%3CmxGeometry%20x%3D%220.0015%22%20relative%3D%221%22%20as%3D%22geometry%22%3E%3CmxPoint%20x%3D%22684%22%20y%3D%22395%22%20as%3D%22sourcePoint%22%2F%3E%3CArray%20as%3D%22points%22%3E%3CmxPoint%20x%3D%22800%22%20y%3D%22395%22%2F%3E%3C%2FArray%3E%3CmxPoint%20x%3D%221027%22%20y%3D%22395%22%20as%3D%22targetPoint%22%2F%3E%3CmxPoint%20as%3D%22offset%22%2F%3E%3C%2FmxGeometry%3E%3C%2FmxCell%3E%3CmxCell%20id%3D%229%22%20value%3D%22Tr%E1%BA%A3%20v%E1%BB%81%20d%E1%BB%AF%20li%E1%BB%87u%20v%C3%A9%22%20style%3D%22html%3D1%3BverticalAlign%3Dbottom%3BendArrow%3Dblock%3BedgeStyle%3DelbowEdgeStyle%3Belbow%3Dhorizontal%3Bcurved%3D0%3Brounded%3D0%3BfontSize%3D14%3Bdashed%3D1%3B%22%20edge%3D%221%22%20parent%3D%221%22%3E%3CmxGeometry%20x%3D%22-0.0005%22%20relative%3D%221%22%20as%3D%22geometry%22%3E%3CmxPoint%20x%3D%221029.5%22%20y%3D%22460%22%20as%3D%22sourcePoint%22%2F%3E%3CArray%20as%3D%22points%22%3E%3CmxPoint%20x%3D%22940%22%20y%3D%22460%22%2F%3E%3C%2FArray%3E%3CmxPoint%20x%3D%22669%22%20y%3D%22460%22%20as%3D%22targetPoint%22%2F%3E%3CmxPoint%20as%3D%22offset%22%2F%3E%3C%2FmxGeometry%3E%3C%2FmxCell%3E%3C%2Froot%3E%3C%2FmxGraphModel%3E&lt;/span&gt;" style="html=1;points=[];perimeter=orthogonalPerimeter;outlineConnect=0;targetShapes=umlLifeline;portConstraint=eastwest;newEdgeStyle={&quot;edgeStyle&quot;:&quot;elbowEdgeStyle&quot;,&quot;elbow&quot;:&quot;vertical&quot;,&quot;curved&quot;:0,&quot;rounded&quot;:0};" vertex="1" parent="1">
          <mxGeometry x="1885" y="380" width="10" height="100" as="geometry" />
        </mxCell>
        <mxCell id="RAOm7xvI7w1EK6sl318r-22" value="ReportService" style="shape=umlLifeline;perimeter=lifelinePerimeter;whiteSpace=wrap;html=1;container=0;dropTarget=0;collapsible=0;recursiveResize=0;outlineConnect=0;portConstraint=eastwest;newEdgeStyle={&quot;edgeStyle&quot;:&quot;elbowEdgeStyle&quot;,&quot;elbow&quot;:&quot;vertical&quot;,&quot;curved&quot;:0,&quot;rounded&quot;:0};fontSize=14;" vertex="1" parent="1">
          <mxGeometry x="2015" y="280" width="100" height="280" as="geometry" />
        </mxCell>
        <mxCell id="RAOm7xvI7w1EK6sl318r-24" value="BookingService" style="shape=umlLifeline;perimeter=lifelinePerimeter;whiteSpace=wrap;html=1;container=0;dropTarget=0;collapsible=0;recursiveResize=0;outlineConnect=0;portConstraint=eastwest;newEdgeStyle={&quot;edgeStyle&quot;:&quot;elbowEdgeStyle&quot;,&quot;elbow&quot;:&quot;vertical&quot;,&quot;curved&quot;:0,&quot;rounded&quot;:0};fontSize=14;" vertex="1" parent="1">
          <mxGeometry x="1830" y="1280" width="120" height="380" as="geometry" />
        </mxCell>
        <mxCell id="RAOm7xvI7w1EK6sl318r-29" value="Database" style="shape=umlLifeline;perimeter=lifelinePerimeter;whiteSpace=wrap;html=1;container=0;dropTarget=0;collapsible=0;recursiveResize=0;outlineConnect=0;portConstraint=eastwest;newEdgeStyle={&quot;edgeStyle&quot;:&quot;elbowEdgeStyle&quot;,&quot;elbow&quot;:&quot;vertical&quot;,&quot;curved&quot;:0,&quot;rounded&quot;:0};fontSize=14;" vertex="1" parent="1">
          <mxGeometry x="2230" y="1280" width="105" height="380" as="geometry" />
        </mxCell>
        <mxCell id="RAOm7xvI7w1EK6sl318r-33" value="UI" style="shape=umlLifeline;perimeter=lifelinePerimeter;whiteSpace=wrap;html=1;container=0;dropTarget=0;collapsible=0;recursiveResize=0;outlineConnect=0;portConstraint=eastwest;newEdgeStyle={&quot;edgeStyle&quot;:&quot;elbowEdgeStyle&quot;,&quot;elbow&quot;:&quot;vertical&quot;,&quot;curved&quot;:0,&quot;rounded&quot;:0};fontSize=14;" vertex="1" parent="1">
          <mxGeometry x="1580" y="1280" width="100" height="380" as="geometry" />
        </mxCell>
        <mxCell id="RAOm7xvI7w1EK6sl318r-42" value="Manager" style="shape=umlLifeline;perimeter=lifelinePerimeter;whiteSpace=wrap;html=1;container=0;dropTarget=0;collapsible=0;recursiveResize=0;outlineConnect=0;portConstraint=eastwest;newEdgeStyle={&quot;edgeStyle&quot;:&quot;elbowEdgeStyle&quot;,&quot;elbow&quot;:&quot;vertical&quot;,&quot;curved&quot;:0,&quot;rounded&quot;:0};fontSize=14;" vertex="1" parent="1">
          <mxGeometry x="1310" y="1280" width="100" height="380" as="geometry" />
        </mxCell>
        <mxCell id="RAOm7xvI7w1EK6sl318r-45" value="ReportService" style="shape=umlLifeline;perimeter=lifelinePerimeter;whiteSpace=wrap;html=1;container=0;dropTarget=0;collapsible=0;recursiveResize=0;outlineConnect=0;portConstraint=eastwest;newEdgeStyle={&quot;edgeStyle&quot;:&quot;elbowEdgeStyle&quot;,&quot;elbow&quot;:&quot;vertical&quot;,&quot;curved&quot;:0,&quot;rounded&quot;:0};fontSize=14;" vertex="1" parent="1">
          <mxGeometry x="2015" y="1280" width="100" height="380" as="geometry" />
        </mxCell>
        <mxCell id="RAOm7xvI7w1EK6sl318r-47" value="&lt;span style=&quot;color: rgba(0, 0, 0, 0); font-family: monospace; font-size: 0px; text-align: start;&quot;&gt;%3CmxGraphModel%3E%3Croot%3E%3CmxCell%20id%3D%220%22%2F%3E%3CmxCell%20id%3D%221%22%20parent%3D%220%22%2F%3E%3CmxCell%20id%3D%222%22%20value%3D%22Y%C3%AAu%20c%E1%BA%A7u%20xem%20danh%20s%C3%A1ch%20v%C3%A9%22%20style%3D%22html%3D1%3BverticalAlign%3Dbottom%3BendArrow%3Dblock%3BedgeStyle%3DelbowEdgeStyle%3Belbow%3Dvertical%3Bcurved%3D0%3Brounded%3D0%3BfontSize%3D14%3B%22%20edge%3D%221%22%20parent%3D%221%22%3E%3CmxGeometry%20relative%3D%221%22%20as%3D%22geometry%22%3E%3CmxPoint%20x%3D%22259%22%20y%3D%22360%22%20as%3D%22sourcePoint%22%2F%3E%3CArray%20as%3D%22points%22%3E%3CmxPoint%20x%3D%22375%22%20y%3D%22360%22%2F%3E%3C%2FArray%3E%3CmxPoint%20x%3D%22475%22%20y%3D%22360%22%20as%3D%22targetPoint%22%2F%3E%3C%2FmxGeometry%3E%3C%2FmxCell%3E%3CmxCell%20id%3D%223%22%20value%3D%22Hi%E1%BB%83n%20th%E1%BB%8B%20danh%20s%C3%A1ch%20v%C3%A9%22%20style%3D%22html%3D1%3BverticalAlign%3Dbottom%3BendArrow%3Dblock%3BedgeStyle%3DelbowEdgeStyle%3Belbow%3Dhorizontal%3Bcurved%3D0%3Brounded%3D0%3BfontSize%3D14%3Bdashed%3D1%3B%22%20edge%3D%221%22%20parent%3D%221%22%3E%3CmxGeometry%20x%3D%22-0.0038%22%20relative%3D%221%22%20as%3D%22geometry%22%3E%3CmxPoint%20x%3D%22665%22%20y%3D%22480%22%20as%3D%22sourcePoint%22%2F%3E%3CArray%20as%3D%22points%22%3E%3CmxPoint%20x%3D%22575.5%22%20y%3D%22480%22%2F%3E%3C%2FArray%3E%3CmxPoint%20x%3D%22485.5%22%20y%3D%22480%22%20as%3D%22targetPoint%22%2F%3E%3CmxPoint%20as%3D%22offset%22%2F%3E%3C%2FmxGeometry%3E%3C%2FmxCell%3E%3CmxCell%20id%3D%224%22%20value%3D%22G%E1%BB%ADi%20y%C3%AAu%20c%E1%BA%A7u%20%C4%91%E1%BA%BFn%20BookingService%22%20style%3D%22html%3D1%3BverticalAlign%3Dbottom%3BendArrow%3Dblock%3BedgeStyle%3DelbowEdgeStyle%3Belbow%3Dhorizontal%3Bcurved%3D0%3Brounded%3D0%3BfontSize%3D14%3B%22%20edge%3D%221%22%20target%3D%227%22%20parent%3D%221%22%3E%3CmxGeometry%20x%3D%220.0065%22%20relative%3D%221%22%20as%3D%22geometry%22%3E%3CmxPoint%20x%3D%22485%22%20y%3D%22380%22%20as%3D%22sourcePoint%22%2F%3E%3CArray%20as%3D%22points%22%3E%3CmxPoint%20x%3D%22575%22%20y%3D%22380%22%2F%3E%3C%2FArray%3E%3CmxPoint%20x%3D%22660%22%20y%3D%22380%22%20as%3D%22targetPoint%22%2F%3E%3CmxPoint%20as%3D%22offset%22%2F%3E%3C%2FmxGeometry%3E%3C%2FmxCell%3E%3CmxCell%20id%3D%225%22%20value%3D%22Danh%20s%C3%A1ch%20v%C3%A9%20hi%E1%BB%83n%20th%E1%BB%8B%22%20style%3D%22html%3D1%3BverticalAlign%3Dbottom%3BendArrow%3Dblock%3BedgeStyle%3DelbowEdgeStyle%3Belbow%3Dvertical%3Bcurved%3D0%3Brounded%3D0%3BfontSize%3D14%3B%22%20edge%3D%221%22%20parent%3D%221%22%3E%3CmxGeometry%20x%3D%220.0037%22%20relative%3D%221%22%20as%3D%22geometry%22%3E%3CmxPoint%20x%3D%22259.32352941176464%22%20y%3D%22500%22%20as%3D%22sourcePoint%22%2F%3E%3CArray%20as%3D%22points%22%3E%3CmxPoint%20x%3D%22375%22%20y%3D%22500%22%2F%3E%3C%2FArray%3E%3CmxPoint%20x%3D%22475%22%20y%3D%22500%22%20as%3D%22targetPoint%22%2F%3E%3CmxPoint%20as%3D%22offset%22%2F%3E%3C%2FmxGeometry%3E%3C%2FmxCell%3E%3CmxCell%20id%3D%226%22%20value%3D%22%22%20style%3D%22html%3D1%3Bpoints%3D%5B%5D%3Bperimeter%3DorthogonalPerimeter%3BoutlineConnect%3D0%3BtargetShapes%3DumlLifeline%3BportConstraint%3Deastwest%3BnewEdgeStyle%3D%7B%26quot%3BedgeStyle%26quot%3B%3A%26quot%3BelbowEdgeStyle%26quot%3B%2C%26quot%3Belbow%26quot%3B%3A%26quot%3Bvertical%26quot%3B%2C%26quot%3Bcurved%26quot%3B%3A0%2C%26quot%3Brounded%26quot%3B%3A0%7D%3B%22%20vertex%3D%221%22%20parent%3D%221%22%3E%3CmxGeometry%20x%3D%22840%22%20y%3D%22500%22%20width%3D%2210%22%20height%3D%2250%22%20as%3D%22geometry%22%2F%3E%3C%2FmxCell%3E%3CmxCell%20id%3D%227%22%20value%3D%22%22%20style%3D%22html%3D1%3Bpoints%3D%5B%5D%3Bperimeter%3DorthogonalPerimeter%3BoutlineConnect%3D0%3BtargetShapes%3DumlLifeline%3BportConstraint%3Deastwest%3BnewEdgeStyle%3D%7B%26quot%3BedgeStyle%26quot%3B%3A%26quot%3BelbowEdgeStyle%26quot%3B%2C%26quot%3Belbow%26quot%3B%3A%26quot%3Bvertical%26quot%3B%2C%26quot%3Bcurved%26quot%3B%3A0%2C%26quot%3Brounded%26quot%3B%3A0%7D%3B%22%20vertex%3D%221%22%20parent%3D%221%22%3E%3CmxGeometry%20x%3D%22665%22%20y%3D%22380%22%20width%3D%2210%22%20height%3D%2270%22%20as%3D%22geometry%22%2F%3E%3C%2FmxCell%3E%3CmxCell%20id%3D%228%22%20value%3D%22Truy%20v%E1%BA%A5n%20danh%20s%C3%A1ch%20v%C3%A9%22%20style%3D%22html%3D1%3BverticalAlign%3Dbottom%3BendArrow%3Dblock%3BedgeStyle%3DelbowEdgeStyle%3Belbow%3Dvertical%3Bcurved%3D0%3Brounded%3D0%3BfontSize%3D14%3B%22%20edge%3D%221%22%20parent%3D%221%22%3E%3CmxGeometry%20x%3D%220.0015%22%20relative%3D%221%22%20as%3D%22geometry%22%3E%3CmxPoint%20x%3D%22684%22%20y%3D%22395%22%20as%3D%22sourcePoint%22%2F%3E%3CArray%20as%3D%22points%22%3E%3CmxPoint%20x%3D%22800%22%20y%3D%22395%22%2F%3E%3C%2FArray%3E%3CmxPoint%20x%3D%221027%22%20y%3D%22395%22%20as%3D%22targetPoint%22%2F%3E%3CmxPoint%20as%3D%22offset%22%2F%3E%3C%2FmxGeometry%3E%3C%2FmxCell%3E%3CmxCell%20id%3D%229%22%20value%3D%22Tr%E1%BA%A3%20v%E1%BB%81%20d%E1%BB%AF%20li%E1%BB%87u%20v%C3%A9%22%20style%3D%22html%3D1%3BverticalAlign%3Dbottom%3BendArrow%3Dblock%3BedgeStyle%3DelbowEdgeStyle%3Belbow%3Dhorizontal%3Bcurved%3D0%3Brounded%3D0%3BfontSize%3D14%3Bdashed%3D1%3B%22%20edge%3D%221%22%20parent%3D%221%22%3E%3CmxGeometry%20x%3D%22-0.0005%22%20relative%3D%221%22%20as%3D%22geometry%22%3E%3CmxPoint%20x%3D%221029.5%22%20y%3D%22460%22%20as%3D%22sourcePoint%22%2F%3E%3CArray%20as%3D%22points%22%3E%3CmxPoint%20x%3D%22940%22%20y%3D%22460%22%2F%3E%3C%2FArray%3E%3CmxPoint%20x%3D%22669%22%20y%3D%22460%22%20as%3D%22targetPoint%22%2F%3E%3CmxPoint%20as%3D%22offset%22%2F%3E%3C%2FmxGeometry%3E%3C%2FmxCell%3E%3C%2Froot%3E%3C%2FmxGraphModel%3E&lt;/span&gt;" style="html=1;points=[];perimeter=orthogonalPerimeter;outlineConnect=0;targetShapes=umlLifeline;portConstraint=eastwest;newEdgeStyle={&quot;edgeStyle&quot;:&quot;elbowEdgeStyle&quot;,&quot;elbow&quot;:&quot;vertical&quot;,&quot;curved&quot;:0,&quot;rounded&quot;:0};" vertex="1" parent="1">
          <mxGeometry x="2277.5" y="1450" width="10" height="70" as="geometry" />
        </mxCell>
        <mxCell id="RAOm7xvI7w1EK6sl318r-48" value="" style="html=1;points=[];perimeter=orthogonalPerimeter;outlineConnect=0;targetShapes=umlLifeline;portConstraint=eastwest;newEdgeStyle={&quot;edgeStyle&quot;:&quot;elbowEdgeStyle&quot;,&quot;elbow&quot;:&quot;vertical&quot;,&quot;curved&quot;:0,&quot;rounded&quot;:0};" vertex="1" parent="1">
          <mxGeometry x="1625" y="1390" width="10" height="190" as="geometry" />
        </mxCell>
        <mxCell id="RAOm7xvI7w1EK6sl318r-49" value="Yêu cầu xem báo cáo doanh thu" style="html=1;verticalAlign=bottom;endArrow=block;edgeStyle=elbowEdgeStyle;elbow=vertical;curved=0;rounded=0;fontSize=14;" edge="1" parent="1">
          <mxGeometry relative="1" as="geometry">
            <mxPoint x="1359" y="1390" as="sourcePoint" />
            <Array as="points" />
            <mxPoint x="1620" y="1390" as="targetPoint" />
          </mxGeometry>
        </mxCell>
        <mxCell id="RAOm7xvI7w1EK6sl318r-50" value="Hiển thị báo cáo" style="html=1;verticalAlign=bottom;endArrow=block;edgeStyle=elbowEdgeStyle;elbow=horizontal;curved=0;rounded=0;fontSize=14;dashed=1;" edge="1" parent="1">
          <mxGeometry x="-0.0078" relative="1" as="geometry">
            <mxPoint x="2064.4999999999995" y="1540" as="sourcePoint" />
            <Array as="points">
              <mxPoint x="1736.5" y="1540" />
            </Array>
            <mxPoint x="1640" y="1540" as="targetPoint" />
            <mxPoint as="offset" />
          </mxGeometry>
        </mxCell>
        <mxCell id="RAOm7xvI7w1EK6sl318r-51" value="Gửi yêu cầu đến ReportService" style="html=1;verticalAlign=bottom;endArrow=block;edgeStyle=elbowEdgeStyle;elbow=horizontal;curved=0;rounded=0;fontSize=14;" edge="1" parent="1">
          <mxGeometry x="0.0065" relative="1" as="geometry">
            <mxPoint x="1640" y="1430" as="sourcePoint" />
            <Array as="points">
              <mxPoint x="1736" y="1430" />
            </Array>
            <mxPoint x="2060" y="1430" as="targetPoint" />
            <mxPoint as="offset" />
          </mxGeometry>
        </mxCell>
        <mxCell id="RAOm7xvI7w1EK6sl318r-52" value="Hiển thị báo cáo cho Manager" style="html=1;verticalAlign=bottom;endArrow=block;edgeStyle=elbowEdgeStyle;elbow=vertical;curved=0;rounded=0;fontSize=14;dashed=1;" edge="1" parent="1">
          <mxGeometry x="0.0037" relative="1" as="geometry">
            <mxPoint x="1625" y="1580" as="sourcePoint" />
            <Array as="points">
              <mxPoint x="1536" y="1580" />
            </Array>
            <mxPoint x="1370" y="1580" as="targetPoint" />
            <mxPoint as="offset" />
          </mxGeometry>
        </mxCell>
        <mxCell id="RAOm7xvI7w1EK6sl318r-53" value="Truy vấn dữ liệu doanh thu" style="html=1;verticalAlign=bottom;endArrow=block;edgeStyle=elbowEdgeStyle;elbow=vertical;curved=0;rounded=0;fontSize=14;" edge="1" parent="1" target="RAOm7xvI7w1EK6sl318r-47">
          <mxGeometry x="0.0015" relative="1" as="geometry">
            <mxPoint x="2060" y="1455" as="sourcePoint" />
            <Array as="points" />
            <mxPoint x="2258" y="1455" as="targetPoint" />
            <mxPoint as="offset" />
          </mxGeometry>
        </mxCell>
        <mxCell id="RAOm7xvI7w1EK6sl318r-54" value="Dữ liệu doanh thu" style="html=1;verticalAlign=bottom;endArrow=block;edgeStyle=elbowEdgeStyle;elbow=horizontal;curved=0;rounded=0;fontSize=14;dashed=1;" edge="1" parent="1" source="RAOm7xvI7w1EK6sl318r-47">
          <mxGeometry x="-0.0005" relative="1" as="geometry">
            <mxPoint x="2260.5" y="1520" as="sourcePoint" />
            <Array as="points">
              <mxPoint x="2171" y="1520" />
            </Array>
            <mxPoint x="2070" y="1520" as="targetPoint" />
            <mxPoint as="offset" />
          </mxGeometry>
        </mxCell>
        <mxCell id="RAOm7xvI7w1EK6sl318r-55" value="" style="html=1;points=[];perimeter=orthogonalPerimeter;outlineConnect=0;targetShapes=umlLifeline;portConstraint=eastwest;newEdgeStyle={&quot;edgeStyle&quot;:&quot;elbowEdgeStyle&quot;,&quot;elbow&quot;:&quot;vertical&quot;,&quot;curved&quot;:0,&quot;rounded&quot;:0};" vertex="1" parent="1">
          <mxGeometry x="1355" y="1360" width="10" height="250" as="geometry" />
        </mxCell>
        <mxCell id="RAOm7xvI7w1EK6sl318r-56" value="&lt;span style=&quot;color: rgba(0, 0, 0, 0); font-family: monospace; font-size: 0px; text-align: start;&quot;&gt;%3CmxGraphModel%3E%3Croot%3E%3CmxCell%20id%3D%220%22%2F%3E%3CmxCell%20id%3D%221%22%20parent%3D%220%22%2F%3E%3CmxCell%20id%3D%222%22%20value%3D%22Y%C3%AAu%20c%E1%BA%A7u%20xem%20danh%20s%C3%A1ch%20v%C3%A9%22%20style%3D%22html%3D1%3BverticalAlign%3Dbottom%3BendArrow%3Dblock%3BedgeStyle%3DelbowEdgeStyle%3Belbow%3Dvertical%3Bcurved%3D0%3Brounded%3D0%3BfontSize%3D14%3B%22%20edge%3D%221%22%20parent%3D%221%22%3E%3CmxGeometry%20relative%3D%221%22%20as%3D%22geometry%22%3E%3CmxPoint%20x%3D%22259%22%20y%3D%22360%22%20as%3D%22sourcePoint%22%2F%3E%3CArray%20as%3D%22points%22%3E%3CmxPoint%20x%3D%22375%22%20y%3D%22360%22%2F%3E%3C%2FArray%3E%3CmxPoint%20x%3D%22475%22%20y%3D%22360%22%20as%3D%22targetPoint%22%2F%3E%3C%2FmxGeometry%3E%3C%2FmxCell%3E%3CmxCell%20id%3D%223%22%20value%3D%22Hi%E1%BB%83n%20th%E1%BB%8B%20danh%20s%C3%A1ch%20v%C3%A9%22%20style%3D%22html%3D1%3BverticalAlign%3Dbottom%3BendArrow%3Dblock%3BedgeStyle%3DelbowEdgeStyle%3Belbow%3Dhorizontal%3Bcurved%3D0%3Brounded%3D0%3BfontSize%3D14%3Bdashed%3D1%3B%22%20edge%3D%221%22%20parent%3D%221%22%3E%3CmxGeometry%20x%3D%22-0.0038%22%20relative%3D%221%22%20as%3D%22geometry%22%3E%3CmxPoint%20x%3D%22665%22%20y%3D%22480%22%20as%3D%22sourcePoint%22%2F%3E%3CArray%20as%3D%22points%22%3E%3CmxPoint%20x%3D%22575.5%22%20y%3D%22480%22%2F%3E%3C%2FArray%3E%3CmxPoint%20x%3D%22485.5%22%20y%3D%22480%22%20as%3D%22targetPoint%22%2F%3E%3CmxPoint%20as%3D%22offset%22%2F%3E%3C%2FmxGeometry%3E%3C%2FmxCell%3E%3CmxCell%20id%3D%224%22%20value%3D%22G%E1%BB%ADi%20y%C3%AAu%20c%E1%BA%A7u%20%C4%91%E1%BA%BFn%20BookingService%22%20style%3D%22html%3D1%3BverticalAlign%3Dbottom%3BendArrow%3Dblock%3BedgeStyle%3DelbowEdgeStyle%3Belbow%3Dhorizontal%3Bcurved%3D0%3Brounded%3D0%3BfontSize%3D14%3B%22%20edge%3D%221%22%20target%3D%227%22%20parent%3D%221%22%3E%3CmxGeometry%20x%3D%220.0065%22%20relative%3D%221%22%20as%3D%22geometry%22%3E%3CmxPoint%20x%3D%22485%22%20y%3D%22380%22%20as%3D%22sourcePoint%22%2F%3E%3CArray%20as%3D%22points%22%3E%3CmxPoint%20x%3D%22575%22%20y%3D%22380%22%2F%3E%3C%2FArray%3E%3CmxPoint%20x%3D%22660%22%20y%3D%22380%22%20as%3D%22targetPoint%22%2F%3E%3CmxPoint%20as%3D%22offset%22%2F%3E%3C%2FmxGeometry%3E%3C%2FmxCell%3E%3CmxCell%20id%3D%225%22%20value%3D%22Danh%20s%C3%A1ch%20v%C3%A9%20hi%E1%BB%83n%20th%E1%BB%8B%22%20style%3D%22html%3D1%3BverticalAlign%3Dbottom%3BendArrow%3Dblock%3BedgeStyle%3DelbowEdgeStyle%3Belbow%3Dvertical%3Bcurved%3D0%3Brounded%3D0%3BfontSize%3D14%3B%22%20edge%3D%221%22%20parent%3D%221%22%3E%3CmxGeometry%20x%3D%220.0037%22%20relative%3D%221%22%20as%3D%22geometry%22%3E%3CmxPoint%20x%3D%22259.32352941176464%22%20y%3D%22500%22%20as%3D%22sourcePoint%22%2F%3E%3CArray%20as%3D%22points%22%3E%3CmxPoint%20x%3D%22375%22%20y%3D%22500%22%2F%3E%3C%2FArray%3E%3CmxPoint%20x%3D%22475%22%20y%3D%22500%22%20as%3D%22targetPoint%22%2F%3E%3CmxPoint%20as%3D%22offset%22%2F%3E%3C%2FmxGeometry%3E%3C%2FmxCell%3E%3CmxCell%20id%3D%226%22%20value%3D%22%22%20style%3D%22html%3D1%3Bpoints%3D%5B%5D%3Bperimeter%3DorthogonalPerimeter%3BoutlineConnect%3D0%3BtargetShapes%3DumlLifeline%3BportConstraint%3Deastwest%3BnewEdgeStyle%3D%7B%26quot%3BedgeStyle%26quot%3B%3A%26quot%3BelbowEdgeStyle%26quot%3B%2C%26quot%3Belbow%26quot%3B%3A%26quot%3Bvertical%26quot%3B%2C%26quot%3Bcurved%26quot%3B%3A0%2C%26quot%3Brounded%26quot%3B%3A0%7D%3B%22%20vertex%3D%221%22%20parent%3D%221%22%3E%3CmxGeometry%20x%3D%22840%22%20y%3D%22500%22%20width%3D%2210%22%20height%3D%2250%22%20as%3D%22geometry%22%2F%3E%3C%2FmxCell%3E%3CmxCell%20id%3D%227%22%20value%3D%22%22%20style%3D%22html%3D1%3Bpoints%3D%5B%5D%3Bperimeter%3DorthogonalPerimeter%3BoutlineConnect%3D0%3BtargetShapes%3DumlLifeline%3BportConstraint%3Deastwest%3BnewEdgeStyle%3D%7B%26quot%3BedgeStyle%26quot%3B%3A%26quot%3BelbowEdgeStyle%26quot%3B%2C%26quot%3Belbow%26quot%3B%3A%26quot%3Bvertical%26quot%3B%2C%26quot%3Bcurved%26quot%3B%3A0%2C%26quot%3Brounded%26quot%3B%3A0%7D%3B%22%20vertex%3D%221%22%20parent%3D%221%22%3E%3CmxGeometry%20x%3D%22665%22%20y%3D%22380%22%20width%3D%2210%22%20height%3D%2270%22%20as%3D%22geometry%22%2F%3E%3C%2FmxCell%3E%3CmxCell%20id%3D%228%22%20value%3D%22Truy%20v%E1%BA%A5n%20danh%20s%C3%A1ch%20v%C3%A9%22%20style%3D%22html%3D1%3BverticalAlign%3Dbottom%3BendArrow%3Dblock%3BedgeStyle%3DelbowEdgeStyle%3Belbow%3Dvertical%3Bcurved%3D0%3Brounded%3D0%3BfontSize%3D14%3B%22%20edge%3D%221%22%20parent%3D%221%22%3E%3CmxGeometry%20x%3D%220.0015%22%20relative%3D%221%22%20as%3D%22geometry%22%3E%3CmxPoint%20x%3D%22684%22%20y%3D%22395%22%20as%3D%22sourcePoint%22%2F%3E%3CArray%20as%3D%22points%22%3E%3CmxPoint%20x%3D%22800%22%20y%3D%22395%22%2F%3E%3C%2FArray%3E%3CmxPoint%20x%3D%221027%22%20y%3D%22395%22%20as%3D%22targetPoint%22%2F%3E%3CmxPoint%20as%3D%22offset%22%2F%3E%3C%2FmxGeometry%3E%3C%2FmxCell%3E%3CmxCell%20id%3D%229%22%20value%3D%22Tr%E1%BA%A3%20v%E1%BB%81%20d%E1%BB%AF%20li%E1%BB%87u%20v%C3%A9%22%20style%3D%22html%3D1%3BverticalAlign%3Dbottom%3BendArrow%3Dblock%3BedgeStyle%3DelbowEdgeStyle%3Belbow%3Dhorizontal%3Bcurved%3D0%3Brounded%3D0%3BfontSize%3D14%3Bdashed%3D1%3B%22%20edge%3D%221%22%20parent%3D%221%22%3E%3CmxGeometry%20x%3D%22-0.0005%22%20relative%3D%221%22%20as%3D%22geometry%22%3E%3CmxPoint%20x%3D%221029.5%22%20y%3D%22460%22%20as%3D%22sourcePoint%22%2F%3E%3CArray%20as%3D%22points%22%3E%3CmxPoint%20x%3D%22940%22%20y%3D%22460%22%2F%3E%3C%2FArray%3E%3CmxPoint%20x%3D%22669%22%20y%3D%22460%22%20as%3D%22targetPoint%22%2F%3E%3CmxPoint%20as%3D%22offset%22%2F%3E%3C%2FmxGeometry%3E%3C%2FmxCell%3E%3C%2Froot%3E%3C%2FmxGraphModel%3E&lt;/span&gt;" style="html=1;points=[];perimeter=orthogonalPerimeter;outlineConnect=0;targetShapes=umlLifeline;portConstraint=eastwest;newEdgeStyle={&quot;edgeStyle&quot;:&quot;elbowEdgeStyle&quot;,&quot;elbow&quot;:&quot;vertical&quot;,&quot;curved&quot;:0,&quot;rounded&quot;:0};" vertex="1" parent="1">
          <mxGeometry x="2060" y="1430" width="10" height="110" as="geometry" />
        </mxCell>
      </root>
    </mxGraphModel>
  </diagram>
</mxfile>
